<mxfile host="app.diagrams.net" modified="2023-06-15T11:52:58.697Z" agent="Mozilla/5.0 (X11; Ubuntu; Linux x86_64; rv:109.0) Gecko/20100101 Firefox/113.0" etag="T59ixZWQjfVtoS0g9amu" version="21.3.8" type="github">
  <diagram name="Page-1" id="Swjc4JI23JSXDqJqoSmP">
    <mxGraphModel dx="1360" dy="795" grid="1" gridSize="10" guides="1" tooltips="1" connect="1" arrows="1" fold="1" page="1" pageScale="1" pageWidth="850" pageHeight="1100" math="0" shadow="0">
      <root>
        <mxCell id="0" />
        <mxCell id="1" parent="0" />
        <mxCell id="GAC_vmrgCj-5szb93fRh-1" value="" style="shape=image;imageAspect=0;aspect=fixed;verticalLabelPosition=bottom;verticalAlign=top;image=data:image/png,iVBORw0KGgoAAAANSUhEUgAAAoAAAAHgCAYAAAA10dzkAAAABHNCSVQICAgIfAhkiAAAAAlwSFlzAAAPYQAAD2EBqD+naQAAADh0RVh0U29mdHdhcmUAbWF0cGxvdGxpYiB2ZXJzaW9uMy4xLjEsIGh0dHA6Ly9tYXRwbG90bGliLm9yZy8QZhcZAAAgAElEQVR4nOzde1hU1f4/8PcAAwgIioBEXJRUVEQRL5maoqWVaZqVpOAFCzW1rDxZR+vrpfScSs28BpqKEkWWlqnHY2Vilnm/AeJBxUsqAioCDpdhnN8f85uRYWa4zWXvmXm/nsenWDOz99p79t7z2Wt91toSpVKpBBERERHZDQehK0BERERElsUAkIiIiMjOMAAkIiIisjMMAImIiIjsDANAIiIiIjvDAJCIiIjIzjAAJCIiIrIzDACJiIiI7AwDQCIiIiI7wwCQiIiIyM4wACQiIiKyMwwAiYiIiOwMA0AiIiIiO8MAkIiIiMjOMAAkIiIisjMMAImIiIjsDANAIiIiIjvDAJCIiIjIzjAAJCIiIrIzDACJiIiI7AwDQCIiIiI7wwCQiIiIyM4wACQiIiKyMwwAiYiIiOwMA0AiIiIiO8MAkIiIiMjOMAAkIiIisjMMAImIiIjsDANAIiIiIjvDAJCIiIjIzjAAJCIiIrIzDACJiIiI7AwDQCIiIiI7wwCQiCzmvffeQ1hYGP7+++8Gf/bvv/9GWFgY3nvvPTPUjIxhzPdKRMJwEroCRGS8rVu34p///KdOuYODA5o3b47IyEhMnDgR3bt3F6B2tu3vv//GE088ofc1R0dHeHt7IzIyEq+88gq6du1q4doREenHAJDIhgwbNgxPPvmk5u/y8nLk5ubi22+/RVxcHP79739jxIgRAtbQdnXo0AFTpkzRKisvL0dOTg7S0tLw66+/YsmSJRgyZIhANSQieoABIJENadeuHZ5++mmd8piYGAwbNgyLFi3CkCFD4OzsLEDtbFuLFi307nsAeOGFFzBy5Eh89NFHeOqpp+Do6Gjh2jVeRUUFXFxchK4GEZkYcwCJ7EBAQAB69uyJu3fv4vz585ryqqoqrF27FsOGDUPnzp0RFRWFl19+Gdu3b9f6/O+//46wsDBs2bIF+/btwwsvvIAuXbqgX79+mD17Nu7evav1/sLCQsycORM9evRAZGQkRo8ejaNHj+rU69ChQwgLC8OKFSt0XqtPXtnYsWMRFhamU64vX/Dtt99GWFgYSktLMW/ePPTq1QuRkZGIjY1FTk4Oqqqq8Nlnn6Ffv37o2rUrRo0ahZMnTxreqQ0QGhqKbt264datW8jNzdV6LTs7G6+//jp69eqFTp06ITo6Gu+//z5u3rwJAJDJZOjUqZNO66JCoUC3bt0QFhaGnJwcrdeSkpIQFham2eelpaVYunQpnnnmGXTt2hU9e/bEqFGjsHPnTp26hoWFYcKECUhPT8cTTzyBLl26aF6r7/cKAGfPnsWbb76J6OhoREREoG/fvpgyZQqOHTvW8B1IRCbHFkAiO6FuxamqqtKUvfnmm/j1118xYsQITJgwAWVlZdixYwfeeecdXLlyBdOnTwcASKVSAMBff/2FQ4cOYezYsRg3bhz279+P77//HsXFxVi5ciUAVWCSkJCArKwsPPfcc+jVqxeuXLmC119/HSEhIRbe6gfU2zB37lwoFAq88847yM7OxubNm/HGG2+gV69euHr1Kl5//XVcv34d69atw6RJk5Ceno4mTZqYbP3VW/9OnDiBCRMmwM/PDwkJCWjRogXOnTuHb775Bvv27cMPP/wAHx8fdO3aFcePH4dSqYREIgEAZGZmorS0FO7u7jhy5Ajatm2rWe6hQ4fg4eGByMhIAMCkSZNw/PhxjB49Gl26dEF5eTm2bt2Kt99+G7du3cK4ceO06lpeXo558+bhpZdeQsuWLQE07Hu9evUqRo8eDS8vL8TFxcHf3x+3bt1CWloaJkyYgK+++gqdO3c2ep8SUeMxACSyA2VlZThx4gRcXFzQpk0bAMAvv/yCn3/+Ge+++y4mTpyoee/o0aMxevRofPHFFxg9ejRatGihCTr27NmDXbt2ISgoCAAwfPhwZGZmYt++faisrISzszN+++03ZGVl4fnnn8e///1vzXIff/xxxMbGWnCrtam3oaqqCp9//rmm/OLFizhw4AC8vLyQmpoKBwdVx4g6YDl58iQee+wxo9Z9584dnDhxAl5eXpp9BwDz5s1Ds2bNsHXrVjRt2lRT3rNnT0yZMgWJiYmYM2cOevfujcOHD+N///ufpsXzr7/+gp+fHzp16oSjR49izJgxmu07fvw4evfuDScnJxQUFMDLywvx8fF49913Net49tln0bt3b2zevFknADx58iQWLVqEkSNHasoa8r3++uuvKCsrw7/+9S8888wzmvLnnnsOb7/9Ni5evMgAkEhg7AImsiEVFRUoLi7W/CsoKMDhw4cxZcoU5OXlYdKkSXBzcwMA/Oc//wEADBgwQOsz9+7dw6BBgyCXy3Hw4EGt5Q8YMEArgAGA9u3bQy6X486dOwBUgQkADB06VOt93bt312qlEspLL72k9be6TiNHjtQEf9XLCwoK6rVchUKhtR+Li4uRn5+PAwcOICEhAUVFRXjjjTfg5KS6787NzUV2djZ69+4NpVKp9blu3bqhWbNm2L9/PwCgT58+AKDV3Xro0CFERUUhMjISR44c0ZRnZGRAJpOhb9++AABfX1+sWbNGE/zJZDIUFxdDqVSiZcuWuHbtms62ODo6agVuQMO+V3Ur57Fjx6BUKjXl3t7e2LhxIwciEYkAWwCJbMjKlSs1XbHVNW/eHO+99x7i4+M1Zeq8MUMDFwDg+vXrWn8HBwfrvMfV1RUAIJfLAUCTs6fvvaGhoTr5apYWEBCg9be7uzsA4KGHHtJbXr3LvDYHDx5Ejx499L7WqlUrLFq0CC+88IKmTJ2LuXXrVmzdulXv58rKygAAnTp1gpeXF44ePYrY2FjI5XIcP34cM2fORFhYGJYuXYrLly8jJCQEhw8fBgBNAAgAx48fx6pVq3D8+HHIZLI6t6V58+Y63d4N+V6fffZZbNiwAZs3b8Yff/yB6OhoPPbYY3j00Uc5oIRIJBgAEtmQUaNGabXQqOcBbN26tc7I07KyMkgkEmzYsEGr5au6wMBArb/r8+OtDlr0vVcMP/6GRkAbOzI6IiIC77zzjlbZp59+iqysLHz++edo37691mvqQGzEiBFaXa3VqbutHRwc0KtXL00L4JkzZyCTydC9e3e0bt0aUqkUhw8fRkhICA4dOoSQkBBNS+3Zs2cxfvx4ODk5YeLEiejUqZOmFfjdd9/FjRs3dNbr4eGhU9aQ79Xb2xtbt25FcnIydu3ahfXr12P9+vVo2rQpYmNj8cYbb1jVSGgiW8QAkMiGBAUF4dFHH63Xe93d3aFUKtG2bVv4+PiYrA7qFsHKykqd1+7du1fv5ahbFBvDmM82lpeXl86+//DDD/Hiiy9i9uzZ+PbbbzXdv8CDFkZXV9d6fWe9e/fGf//7X1y+fBmHDh2Cl5cX2rVrBwcHB00e4PPPP4/jx49rdbGmpqaisrISH330EYYPH97o7Wvo99qsWTPMmDEDM2bMwJUrV7B//35s3rwZX3zxBVxdXfHaa681ui5EZDzmABLZKfVgkFOnTum8VlxcXO+uz5rUXalXr17Vee3ChQtaf6sDIn0Bm77ctJrUn68ZlNTns5bQoUMHjBs3DpmZmVi/fr3Wa+q8udOnT+v97O3bt7X+VucBHjt2TJP/p2657d69O44cOaKT/wc86Mav+RSYq1evIi8vr97b0pDvtabg4GDExcXh22+/haurK/bs2VPv9RKReTAAJLJT6iT/5ORkrUR9pVKJd955B9HR0SgtLW3wcnv27AkA2L17t1b5oUOHcOnSJa0yPz8/ANCZG+/8+fN6A9OafH199X7++++/b1Cdzen111/Hww8/jJUrV+LixYua8pCQEHTo0AFZWVk4dOiQ1mdOnTqFPn36YN26dZqyoKAgBAUF4ciRIzhx4oRWvmG3bt1w7do17Nq1C1KpVKtFUb2PqgfFcrkcH374oWbkcXl5eZ3b0ZDv9YMPPsDw4cNRUVGhVa7uKq7eEkpEwuBZSGSnnnjiCQwaNAg///wzJk6ciKFDh6Kqqgo7d+7EoUOHMH36dL25YHV58skn0apVK6SlpUEul+PRRx/F9evX8fXXX6N37974888/NQFnUFAQ2rVrh71792LTpk3o0qULcnNzsWLFCvTp0we///67VnCqb10//vgjFixYoJmzcMeOHZrAo7bPWoqbmxs++OADTJkyBbNnz9aaambu3LmYMGECpk2bhgkTJiA4OBgXLlzAV199BR8fHwwbNkxrWb1798ZPP/2E8vJyrQAwKioKEokE3333HSIjI7W+tyFDhmDbtm344IMP8Morr0Aul+P7779Hx44d0b9/f/z000/4/PPPMWTIEERERBjcjoZ8r48++ii2bNmCmJgYjBgxAj4+PigqKsKPP/6I8vJyQacDIiIVtgAS2bFly5bhnXfeQWFhIebPn49PP/0UFRUV+Pjjj/H66683apnOzs5Yv349Bg8ejD179mDevHnYv38/PvvsM3To0AGAdpftmjVrEB0djTVr1mD8+PH45ptvsGjRIs0TKGrL5xs8eDDmzZuHO3fuYPLkyZg1axbc3d2xdOnSOj9rSQMGDMBTTz2FEydOYNOmTZryrl27Ii0tDb1790ZKSgpmz56N7du345lnnkFaWppmEma1Pn36QCaTwc3NDeHh4ZpyLy8vtG3bFvfu3dN0Fav169cPCxYsgEQiwUcffYSNGzdi8ODBWLBgAcaPH4/AwECkpqbqtELW1JDvdejQoVi9ejW8vb2xdu1avPfee0hMTISXlxfWrVvHaWCIRECiFMMtMhERERFZDFsAiYiIiOwMA0AiIiIiO8MAkIiIiMjOMAAkIiIisjMMAImIiIjsDANAIiIiIjvDAJCIiIjIzjAAJCIiIrIzDACJiIiI7AwDQCIiIiI7wwCQiIiIyM44CV0BMcrPz8fatWuRnZ0NFxcXREdHY8yYMXBwYLxMRERE1o8BYA1KpRKLFy9GYGAg1qxZg7t372LRokVo1qwZhg4dKnT1REeukOOrM19h/Yn1yC/NhxJKSCQS+Lr5or1Pe5wtPIvCe4VQQqnz2fq8z5Lv4fpsv04NWVZL95aY2HUixkSMgdRRqrMcUtF3DahJrN+xNa5PjHUyx/o6+naE/L4cA1sPREx4DM9BM5AolUrdb9KOnT9/HnPmzMGXX34JDw8PAMCePXuwc+dOfP755wLXzrLqCu4yCzJx/MZxVCgqhK4qkVlIIEH3gO74Y+Ifdv0DVFuQd73kOkrlpQLWjmyZm9QNnfw64UD8Abs+B82BLYA15Obmws/PTxP8AUBoaChu3LiBsrIyNGnSRMDaWYZcIUfyqWS8tfstvRf2c7fO4cDVAwLUjMiylFDiVN4ppGWmIa5znNDVsbi6rgVE5iaTy5CRn2G356A5MamthpKSEq3gD4Dm7+LiYiGqZFGyShnCVoYh4acEXvCJAFTer8T+y/uFroZFyRVybDy5EQFLAngtIMHJ5DK7OwctgS2ADSCRSISuglnJFXJEfBGB3KJcoatCJBrODs7oF9JP6GpYjKxSproO3MnVm+tFZGluUje7OgcthS2ANXh6eqKkpESrTN3y5+npabF6yBVypJxOQcL2BKScToFcITf7+t74zxvIvcPgj0hNAgm6+HdBTHiM0FWxCPVN4MU7Fxn8kSiocwDt5Ry0JLYA1tCmTRsUFBSgpKQETZs2BaAaGBIYGAhXV1eL1EGukKPvhr7IyM+ATC5T5eD89y0sHrTYLCMS1es7dv2YURd9ZwdntGrWCg4SB/i6+yKsRRiyC7NRcK9A7/slEkmd77Pke7g+269TQ5bV0qMl4iPj7WoUcOqZ1EbfBLo7uSPQM1Dva2L9jq1xfWKskznW18GnA6ruV2FA6wEcBWwmHAWsx5w5c+Dn54dXX30Vt27dwsKFC/HCCy9g8ODBFll/yukUTN4xGTK5TKtcAglaN2+NM1POwM3ZzWTrSz6ZjEk/TULl/UqD7zEU3BXKCu3yh5LI1sgVcgQsDUChrLDW96mvBRJI7DZQJrIFDAD1uHXrFpKSkpCZmYkmTZpg8ODBeOmllyy2/oTtCVh3Yp3B10ObhyJ7WrZJLrZ1XfSbOjfFsqeWYWyXsby4E9mw5JPJeOXHV6CAQuc1F0cX9ArsxUCPyIYwABQhQy2AahJIsH74ekyInGCSdU38cSLk97VzDCWQYHK3yVj+zHJe7IlsXG03gk2lTZH3jzyT9joQkfA4CESEYsJj0MmvE6QO+gMvJZSY9fMskwwM2Zu7Vyf4AwAfNx8Gf0R2Ii0zDXfL7+qUO8IRy4csZ/BHZIMYAIqQ1FGKA/EHkDQsCU2lTfW+5275XaRlphm1HrlCjvTL6brrd5Dik0GfMPgjshPpl9L13gh6u3kjNiJWgBoRkbkxABQpqaMUEyInIO8feWjqrBsEmmJy2rTMNNwouaFTHuQVxIs+kR3pG9wXzg7OWmW8ESSybQwARc7N2Q0rnlmh9+LcO6i3Ucvem7sXZVVlOuUDWg3gRZ/ITsgVcqw8slKrBVACCSL9I3kjSGTDGABagTERY9DZvzMkePAkkqr7VVh9ZHWj8wANdf+6Sd0Q3Sq6sVUlIjNTP6YtemM0ojdGI/lkslH5wGmZacgqyNKaA9TJwQlTe0zljSCRDWMAaAWkjlJM7zFda1CIEkpkFmQ2Og/QUPevv4c/Z1wnEin1s7rjf4xH+uV0pF9OR/yP8eizvk+jg8D0S+k6Mw7I78vx59U/TVFlIhIpBoBW4sCVAzoTNRvzgOz0S+ns/iWyIoae1a2EEqfyTjX6ZrB/q/5wk2qP8uWzV4lsHwNAK6HvIm1MHqChiz67f4nEp65ndVfer8S+S/sateyR7UfC38MfThLVk0H57FUi+8AA0ErEhMego29Hk+UBqucaVAeBvOgTiZP6Wd1rj6+t9Vndv136rcHXArlCjgGbBuBGyQ1UKavgKHGEv4c/fhv3G3sCiGwcA0ArYY48wNe6v4YeAT0Q3Soaq4esxoH4A7zoE4lMWmYaMvIzoFDqPqKturzSvAZfC9TLVqeDKJQK5JXmYWv21kbXl4isAwNAK2KqPEB1i8K0XdOQfjkdh68dxuqjq01ZVSIykb25ew0+FrK6xlwL9A0AMSa3mIisBwNAK2KqZG31Xb/6wi+Ty5CRn2H0k0WIyLQMTdckgUSTs6fWmGsBB4AQ2S8GgFbEVHl7vOsnsg6Gpmtq1awVuj7U1ehrAXOBieyXU91vMY/CwsJ6v7eqqgr+/v5mrI11UD8j+KszXyH5ZDKUUCI+Mr7By+nfqj9SM1K1gkDe9ROJj6Hpmga2Hog1z64x+lqgvqakZaZh/+X96BfSDzHhMcwFJrIDEqVSaXhYmRnFxDTsDjMtjd2TwIP8PXUXrvqOvSEDOEyxDCIyv+STyZj00ySt3F83qRsShyYiJjzGJNeCtMw0pF9KR/9W/Rn8EdkRwQLAffv2af6/srIS27ZtQ+vWrREWFgZ3d3eUlpYiMzMT169fx5gxY9CnTx8hqik6KadTMHnHZJ3Wu8ShiYjrHFfv5agv/LzrJxInuUKO3ut749j1Y5rpXySQoHtAd/wx8Q+kZaYZdS3gjSCRfROsCzg6Olrz/2vXrsVTTz2FESNGaL1nxIgR2Lp1KzIzMxkA/n+15e81JACUOkoR1zmuQZ8hIsup6xm9xl4LahsMxusCke0TxSCQv/76C48++qje13r16oVDhw5ZuEbixVF7RPahrmf0Gnst4GAwIvsmigCwsrISN2/e1PtaYWEhKisr9b5mj0wxak+ukCPldAoSticg5XRKox8iT0TmU1eAZ+y1gDeTRPZNsBzA6j7++GNcuHABI0aMwCOPPAJ3d3dUVlbi0qVL2LJlC4KDg/HPf/5T6GqKhjH5e8z7IbIOskoZIr6IwJWiK6hSVuk9V3ktIKLGEkUAWFRUhM8++wzZ2dk6r4WGhmLmzJnw8fERoGa2x1SDSIjIfNTB2ZmbZ1BWVQZHiSNCmoXgzJQzcHN2q3sBDVgPB4MR2SdRBIBqN2/exNWrVyGTyeDq6oqHH34YDz/8sNDVEqXGTt+QsD0B606s0y2PSkDSsCRzVJWIGog3akRkboKNAlZTKBRISUnBCy+8gJYtW6Jly5ZCV0n0anbdpGakYsXhFfXquuEk0ETi15ARvo29GeQcgET2TfBBII6OjkhPT0dRUZHQVbEaxjzLl49+IhK/+g7QUN8MTt4xGetOrMPkHZPRd0PfOgd2NfZzRGQ7BA8AAWDMmDHYvHkz/v77b6GrYhWMmb5B/einxKGJSIhKQOLQRCZ9E4lMfW/UGnszaMxNJBHZBsG7gAFgz549KCkpwcyZMyGVSuHu7q7znsTERAFqJk7GduNyEmgi8Xut+2vYeHIjJBIJJnSZgDERY3Ru1Bo7GbSpJpQnIusligCwVatWQlfBqsSEx2DF4RU60zewG5fI+umbnkUml2FMxBid9zb2ZpC5wEQkqlHA+lRVVSE/Px8BAQFCV0VUGjt9AxO/icStISOAGzuXH+cAJCLRB4C5ublYtGgR1q5dK3RVrB4v+kTi19Cpmoy9GeQcgET2SRRdwJWVlUhLS8PJkydRWlqqKVcqlSgpKUGLFi0ErJ3t4MPficSvod2zjc3pZS4wkX0TxSjgb775Bnv37kVQUBCKi4vRrl07tG7dGjKZDI8//jjmzJkjdBVtAh/+TiR+nKqJiCxBFC2Ahw4dwowZMxAZGYlx48YhLi4OLVu2RGFhIZYuXarVKkiNx8RvIvFTT9XE7lkiMidRtAAWFRUhKCgIACCRSKBQKAAAPj4+iImJwcaNGwWsnXjJFXKknE5BwvYEpJxOqXMSV7YsEFkHdfds0rAkxHWOY/BHRCYnihbApk2b4tatW2jRogXc3NyQl5enGfXr7++PK1euCFxD8WnM4+DYskAkfuYeqc+ZAIgIEMko4FWrViE7OxsLFy7EunXrcPXqVcTHx8PT0xM//fQT/ve//2HFihVCV1NU+LB4Ittj7pH6nAmAiNRE0QU8duxY+Pn5QalUIiYmBhUVFVi4cCHeffddHDx4EDEx7KKsiQM6iGxPYx/RVt90ED4CjojURNEF7OnpiQ8++AAA4OXlhaVLlyInJwdlZWUIDQ2Fj4+PwDUUHw7oILI9jXlEW0PSQfgIOCJSE0UL4Pvvv4/vvvsO58+fh1KphKurKyIiItCzZ08GfwZwQAeR7enfqr/mnFar68auIa16jVk+Edkm0eQAZmVlobCwEB4eHoiIiEBkZCS6dOmC5s2bW7Qu06ZNw+3bt+Hg8CA27ty5M959912L1qM+OJM/kW1pTI5eQ54cwhxAIlITRQCodvPmTWRmZiIzMxNZWVm4ffs2goODERkZidjYWIvUYdq0aZg6dSrCw8Mtsj4iouoaemPX0AFhvHEkIkBkAWB15eXlSE9Px44dO5Cfn4+0NMskKdtyAMjpH4hsD1v1iKgxRBMAlpeXIzs7G1lZWcjKysLFixfh6emJ9u3bo0OHDnjqqacsUo9p06ahVatWyM3NRUVFBcLDwzFx4kQ0a9bMIus3F/5IENkutuoRUUOJIgCcPXs2Ll26BD8/P7Rr1w4dOnRAhw4d4O/vb/G6fPrpp2jTpg0GDRqE8vJyrFq1Cvfv38f8+fMtXhdT4ryBREREpCaKaWByc3PRvHlzTeDXsWNHs43+3b9/P1auXKn3talTp+Kdd97R/O3h4YFXXnkFb7/9Nm7cuIGHHnrILHWyBE7/QCR+TNMgIksRRQtgRUUFzp49i4yMDGRmZiI3Nxe+vr7o2LEjwsPDzRoQ1qWyshJxcXGYP38+OnToIEgdTIEtgESW05hAjmkaRGRJoggAa5LJZMjMzERGRgaOHTuGwsJCfPPNN2Zfb2FhIX744QdMmDABTk6qxtFLly5h1qxZ+OKLL+Dt7W32OjRGfX5s+ONCZBmyShkivojA5TuXoYACjhJHhDQLwZkpZ+Dm7Gbwc7xJIyJLEkUXcHV5eXk4e/as5l9BQQGCgoIssm4vLy8cPXoUzs7OePnll1FaWoqNGzeiR48eog7+6vMUAKmjFAfiDzBRnMiM5Ao5Ir6IwMU7FzVlCqUCF+9cRMQXEcielm3wnGOaBhFZkihaAPfs2YOsrCxkZ2fjzp078PT0REREBDp37mzxyaCvXLmC5ORkXLhwAS4uLoiKisLYsWPh5mb4zl1IbDUgEo/kk8mI/zEeSuheVp0kTtgwYoPB85LnMhFZkigCwNjYWLRr1w5dunRB586dERoaKnSVrEZDngJAROYjV8gRsDQAhbJCg++p7by0RJoGB5kQkZoouoDXr18PFxcXAMC9e/dw7do1+Pv7w9HRUeCaiV//Vv2RmpGq02rAZ3sSWVbqmVTckd0x+Hpd56W50zTqmy5CRPZBFC2AgGp6lh9++AHXrl2DRCLB559/Dnd3d6xbtw7Tpk2DVMoLlD4c3EEkvLpa/+o7EMSc2MVMRNU5CF0BAPjtt9+watUq+Pv7Y/z48ZqWP7lcjosXL+Lbb78VuIbipW41SByaiISoBCQOTWTwR2RhaZlpuFt+V+9rDhIHKJQK5JXmYcCmAZAr5Gapg1whR8rpFCRsT0DK6RSd9dQ2yISI7I8oAsAdO3bg5ZdfxqxZszBkyBBNANi8eXPEx8fj4MGDAtdQ3KSOUsR1jkPSsCTEdY5j8EdkYXtz90J+X39gd195H4Aq2MrIz0Bapumfa67uCZi8YzLWnViHyTsmo++GvlpBYP9W/eEm1W59ZLoIkf0SRQCYl5eHxx57TO9rQUFBuHPHcF4NEZGQ5Ao50i+n65RLINEpq63Fra4WvNqkZaZp0kDU66kZbMaEx6CTXydNEKhOF4kJj6n3eojIdohiEIibmxtu3ryp99m/eXl5op2ChYgoLTMNN0pu6JT7uPngnvxevQZoGTtAoz5zCHIuUCKqThQtgF27dkVSUhLOnDmDqqoqADms/TgAACAASURBVIBEItHMyRcVFSVwDYmI9NubuxdlVWU65UPbDa13i1t9WvBqU9/uXaaLEJGaKEYBFxcXY/78+fj7778hkUigVCrh7OyMyspKBAUF4f/+7//g6ekpdDWtGuf/IjI9uUKO9qvaaz35A3gwujYmPKZeLW7GzufJ2QCIqKFEEQACQFVVFY4cOYKcnBzIZDJ4eHigbdu26Natm+a5vNQ4/HEgMo+U0ymY9NMknRbA0OahWo99q+sGzBRTtKjXwe5dIqoP0QSAZD6c/4vIPAy13L3S9RWse05VXp8bMN6kEZGlCZoDqFQqkZGRgfT0dGRlZel9j1wuR2pqqoVrZls4/xeRefQN7gtnB2etMjepG6JbRWv+rk9+H+fzJCJLE6xvVSaTYcGCBcjNzdWUhYSEYM6cOfDy8gIAZGVlITExETdv3sSYMWOEqqrV4+PiiExPrpBj5ZGVWvP/SSBBuG+41kCP+ozQBR4M0GCrPBFZgmAtgFu3bsWdO3cwY8YMLFmyBG+99RbKysqwfv16yGQyJCYmYv78+XB1dcWHH34oVDVtAuf/IjK9tMw0ZBVkQYkHWTRODk6Y2mOqVssdJ2AmIjESrAXw6NGjGD9+PHr37g0ACAwMhLe3N+bPn4/s7GyUl5dj/PjxePrpp+HgIIrZaqwW5/8iMj19LXvy+3L8efVPTIicoCmLCY/BisMrdPL7eANGREISLAAsKChAmzZttMratm0LpVKJDh06YPz48WjevLlAtbM97F4iMh25Qg4nByc4SZxQpazSlBuae483YEQkNoIFgFVVVXBxcdEqk0gkcHJywujRoxn8NRDn+SOyDPWI3TM3z+gEf4Za9ngDRkRiwwn2bICxj5EiovpTj+qtPvefo8QR4zqPw/Jnljf4nOPNGxEJgcl1NsDYx0gRUf3py/1TKBVQKBWNCv76buiLyTsmY92JdZi8YzL6bugLuUJe94eJiIwgaAvgtm3b4OysPYeWQqHATz/9BDe3B6PmJBIJRo8ebenqWY36TjNBRMbrG9wXm05tQuX9Sk1ZY0f11nbzxnOXiMxJ0ADwP//5j97yn3/+WaeMAaBhnOePyDLqO/efoc/W7OrlzRsRCUWwADAtjd2TpsJpJogso75z/9VkKE93avepFrt5Y64hEVXHQSA2gNNMEFlGfef+q8lQV68SSnTy62T2mzcOFCOimhgA2ghOM0Fkfo3N/zPU1fvn1T8tcvPGXEMiqomjgImI6sGY/L/aHgenvnlLGpaEuM5xRgV/coUcKadTkLA9ASmnUzSjiWvLNSQi+8QAkIioHhqb/wdY5nnctU0pw+cRE1FNDACJiOqhtvy/uqjzdBOHJiIhKgGJQxNNnn9XWzevJQJQIrIuoggA58+fj3v37ul97cqVK/jggw8sXCMiIm19g/vC2UF73tKGtKKZsqtXn9q6eS0RgBKRdRF0EEhhYSEAICsrCzdv3oSnp6fW60qlEllZWbh06ZIAtSMiUjEm/6+u5Zpqapa65gPlQDEiqk6iVCqVdb/NPGJjY1FVVVXn+9q3b4/58+dboEZERLpSTqdg8o7JWsGV1EGKpGFJtU7/UpuaU7Oou2Ub2zJn6uURkW0TtAUwOTkZ58+fx9y5cxEbG4smTZrovMfd3R1RUVEC1M42cPJXIuPtzd3bqPn/amPqqVk4HygRNYSgLYBq+/btQ58+fSCV8kJlSmwRIDKeXCFH+1XtcfHORa1yN6kbEocmNrpLNWF7AtadWKdbHpWApGFJjVomEVF9CdYCeOrUKc3/N2/eHFlZWbW+v0uXLuauks3h5K9ExkvLTMONkhs65f4e/kbl//EZ3kQkJMECwEWLFjXo/Xx2cMPxQfNExtubuxdlVWU65QNaDWhwS3r1lIw+wX0Q7huOzIJMPsObiCxOsABw7ty5Qq3abrCFgcg4coUc6ZfTdcrdpG6IbhXd4GXVfB5vR9+OWD1kNf64+gdz9ojIogQLADt27CjUqu1GTHgMVhxeYfYHzRPZKlN2/+pLycgqyIKjgyNz/ojI4gQdBaz2yy+/1Pr6/fv3MXjwYAvVxnZwVCCRcUzZ/cuUDCISE1EEgGvXrq3zPQwAG4eTvxI1jim7fwGmZBCRuIhiGpiCggKdssrKSuTm5uLXX39FfHw8goODBaiZdeGcf0Smk3wyGQnbEyBXyrXKQ5uHIntadqMGgHBaJiISC1EEgLW5dOkSNm/ebNLnAV+4cAHLli2Dp6cnFi5cqPXamTNnsGnTJly/fh3e3t4YNWoUHn/8cZOt21z440JkOnKFHAFLA1AoK9R57ZWur2Ddc7rz99V3uUzJICIxEEUXcG1CQkKQk5NjsuX9/vvvSE1NRVBQEO7du6f12u3bt/HJJ59g9OjReOKJJ3DmzBl89tlneOihh9CmTRuT1cEcOOcfkemkZabhbvldnXJnB+dGdf+qVU/JYIs9EQnJQegK1GX//v16HxHXWHK5HAsXLtQb0B04cAD+/v4YMmQIXFxc0L17d/To0QN79+412frNpbYEcyJqmPRL6ZDfl+uUe7l6mWQUvbrFfvKOyVh3Yh0m75iMvhv6Qq7QXScRkTmIogVw0qRJkEgkOuVlZWWoqKjAs88+a7J1DRw40OBrFy9eRGhoqFZZ69at8eeff5ps/ebCBHMi09F3PkkdpPhk0CcmaaVjiz0RCU0UAWCXLl30BoAeHh5o06YNHnvsMYvUo6SkBC1atNCpQ3FxsUXWbwzO+UdkOobOp9iIWJMsn1PCEJHQRBEATps2zeBrVVVVuHHjBgICAuq1rP3792PlypV6X5s6dSqio6MNflZfEFpbuZhwzj8i0zH3+WTpFnvmGxJRTaIIAGtz9epVLFq0qF5zBQJAv3790K9f4y6inp6eKCkp0SorKSmBl5dXo5ZnaZzzj8h0zHk+WbLFXt8j6FYcXsEZAojsnCgCwMrKSqSlpeHkyZMoLS3VlCuVSr3dsubyyCOPYN++fVpl58+fxyOPPGKR9RORfbBkiz3zDYlIH1GMAv7mm2+wd+9eBAUFobi4GO3atUPr1q0hk8nw+OOPY86cORapR9++fZGfn4+dO3eioqICf/31F06cOIFBgwZZZP1EZD/ULYxJw5IQ1znObK1xnCGAiPQRRQvgoUOHMGPGDERGRmLcuHGIi4tDy5YtUVhYiKVLl2q1ChprxowZKCwshEKhgFKpRGysKql72bJl8PX1xXvvvYf169cjNTUVPj4+mDFjBkJCQky2fiIic6ue8+fk4AQ3qRtnCCAiLaIIAIuKihAUFARANeBCoVAAAHx8fBATE4ONGzfqPLGjsT7//PNaX+/QoQM+/fRTk6yLiKgmcw/IqJnz18SpCRwkDpogkDMEEBEgkgCwadOmuHXrFlq0aAE3Nzfk5eVpRv36+/vjypUrAteQiMh4lhiQUTPnr6yqDE2cmmB8l/FQKBWcIYCIAIgkBzAiIgIrVqxAcXEx2rZti82bN+P06dO4dOkSvv32WzRr1kzoKhIRGa22ARmmoi/nr6yqDAqlwuz5hkRkPUQRAI4dOxZ+fn5QKpWIiYlBRUUFFi5ciHfffRcHDx5ETAy7KojI+hkakLHv0j6TraN/q/5wk7pplTHnj4hqkiiVSqXQlaipvLwcOTk5KCsrQ2hoKHx8fISuEhGR0VJOp2DST5NQVlWmVR7aPBTZ07JN0jJXs5tZnfPHef+IqDrBWgDfeecdFBUVAQCmT5+uNQGzq6srIiIi0LNnTwZ/RpAr5Eg5nYKE7QlIOZ3CB80TCSwmPAYPNX1IpzyvNM9k3cDqOQYThyYiISoBiUMTGfwRkQ7BBoHk5+fj559/Rnh4OAoKCpCdnQ13d3eD7+/YsaMFa2f9OPs/kfhIHaXoH9IfF+9c1Co39XOA+VQgIqqLYAFgz5498d133+G7774DACxevLjW96elmS5J2h5w9n8icRrYeiDSMtM4Lx8RCUrQHMCLFy+iuLgY//rXv/DGG2/U2gIYGRlpwZpZv4TtCVh3Yp1ueVQCkoYlCVAjIgKYo0dE4iDoPIChoaEAgBdffBHdu3eHi4uLkNWxKf1b9UdqRipbGYhExpLPASYiMkRUo4DPnz+Pc+fOoaioCMOHD4eHhweKioo4D2AjsJWBiIiIDBFFACiTybBkyRJkZGRoypYvX46qqiq8//77WLBggeZRcVR/6kdOsZWBiIiIqhPFRNApKSm4ceMGZs6ciQ0bNmi6gh966CF069YNX3/9tcA1tE7qkYCc/Z+IiIiqE0UAeOTIEUyaNAk9e/aEm9uDGewdHBwwdOhQnDt3TsDaEREREdkWUQSAMpkM/v7+el9zdXVFeXm5hWtEREREZLtEEQD6+fnhr7/+0vvayZMn0bJlSwvXiIiIiMh2CToNjNpTTz2FjRs34urVqwgPD4dSqcSJEyeQn5+PPXv2YOzYsUJX0WqoB36kX0pH/1b9OfCDiIiIdIhiFDAAbNu2Ddu3b4dMVm3eOjc3DB8+HCNGjBCwZtaDU78QERFRfYgmAAQAhUKBa9euQSaTwcPDAwEBAXBwEEUvtVVIOZ2CyTsm60z+nDg0kY9/IyIiIg3RRFe3b99Gbm4uACAoKAiBgYEM/hoo/VK6VvAHPHjIPBHZJ7lCjpTTKUjYnoCU0ymQK+RCV4mIREDwHMDffvsNP/zwA/Ly8jRlEokE7du3x4gRI/gM4Abg49+IqLqaaSGpGalYcXgF00KISNgu4E2bNmHnzp3o3LkzunXrBh8fH8jlcty4cQOHDx9Gbm4uXnrpJbz44otCVdGqMAeQiKpjWggRGSJYC2BGRgZ27dqFadOmoV8/3RaqkSNHYteuXdi0aRPat2+PTp06CVBL68KHzBNRdbWlhTAAJLJvggWAP//8MwYOHKg3+FMbMmQIrly5gl27djEArCf14994cScipoUQkSGCjbLIyclB375963xfdHQ0Lly4YIEaERHZlpjwGHTy6wQ3qeoRm+q0kJjwGIFrRkRCE6wF8O7du/Dz86vzfX5+frh7964FakREZFuYFkJEhggWAFZVVUEqrfsi5ODgABFNVUhEZFWYFkJE+gg60Z5EIhFy9TaNc38RERGRIYJNAxMTEwNPT886J3u+f/8+iouLkZaWZqGaWT9OB0NEfC44EdVGsC7g/v37C7Vqm5eWmaYJ/gDVtA8Z+RlIy0xjNxCRHeAE0ERUF8ECwKlTpwq1apvHub+I7BtvAomoLnzYrg3q36q/ZtoHNc79RWQ/+FxwIqoLA0AbxLm/iOwbbwKJqC6CPguYzEedAM65v4jsDweCEVFdGAASEdkg3gSSEDj63HowACQiIiKjseXZujAHkIiIiIxW2+hzEh8GgERERGQ0jj63LgwAiYhsFB8JSZbE0efWhTmAREQ2iPlYZGk85qyLXQaAFy5cwLJly+Dp6YmFCxdqyjMzMzF//nxIpdoH6vTp0/HYY49ZuppERI2WcjoFk3dM1uqSc5O6IXFoIp8GQmbD0efWQ7BHwQnl999/R2pqKoKCgnDv3j2d1319fbFq1SoBakZEZDp8JCQJQeooRVznOB5jVsDucgDlcjkWLlyINm3aCF0VIiKzYT4WEdXG7loABw4cWOvrZWVl+OSTT3D27Fl4eHhg8ODBGDp0KCQSiYVqSERkvJjwGKw4vEInH4uPhCQiwA4DwNo0adIEwcHBGDJkCN58802cPXsWS5cuhbu7e52BIxGRmEgdpTgQf4D5WESkl80NAtm/fz9Wrlyp97WpU6ciOjoaAPDtt9/i1KlTWoNA9ElJScG5c+fw4YcfmrqqRERERIKwuRbAfv36oV8/0+W4+Pn54dChQyZbniXwWYxERERUG5sLAI3x119/obS0FE8++aSm7Pr16/Dz8xOwVg1Tcx6m1IxUrDi8gvMwERERkYbdjQKujVQqxaZNm5CRkQGFQoHTp09j7969ePrpp4WuWr3xWYxERERUF5vLAazLjBkzUFhYCIVCAaVSCScnVSPosmXL4Ovri19++QU//fQTbt++DT8/PwwbNkyTN2gNErYnYN2JdbrlUQlIGpYkQI2IiIhIbOwuALR1nP2fiIiI6sIuYBsTEx6DTn6dNBPAcu4vIiIiqoktgDaIz2IkIiKi2jAAJCIiIrIz7AImIiIisjMMAImIiIjsDANAIiIiIjvDAJCIiIjIzjAAJCIiIrIzDACJiIiI7AwDQCIiIiI7wwCQiIiIyM44CV0BIhLOqlWrkJ6erlUmkUjQrFkztG7dGi+99BIeeeQRk6933759WL16NT777DM8/PDDJl9+daNGjdL629nZGd7e3oiKisLIkSPh6enZoOVVVlZiyZIlyMzMRKdOnfDee+8hOzsbq1evxq1btzB16lT06dPHlJuAUaNGYfjw4YiNjTVqOer9vnLlSvj5+ZmodkRkjRgAEtk5T09PLF68WPP3/fv3UVBQgO+//x7vv/8+FixYgLZt2wpYQ+M9/fTTGDlyJABVAHfhwgV8+eWXuHjxIhYsWNCgZR0/fhwnTpzApEmT0L17dwDADz/8gPLycnz88cdo0aKFyeuflJQEV1dXky+XiOwXA0AiO6du8avO29sbM2fOxJQpU/Cf//zH6gNAFxcXrW308/PDzZs3kZqaiuLi4ga1ApaUlAAAOnfurFlmSUkJAgICEBgY2Og6VlVVwclJ/yW55vdDRGQsBoBEpJeLiwv8/f1x+/ZtrfLdu3fjv//9L27evAl3d3f06NEDcXFxcHNzAwAsX74cV65cwdixY7Fp0ybcuHED3t7eePHFFxEdHW1wfbt27cKvv/6K/Px8SKVSPPLII4iLi0NISAiuXLmCf/zjH5g6darOMt58802EhITgrbfeavA2SiQSTdCVn5+P6dOn49VXX8XgwYM171m1ahVOnjyJtWvXanWZT58+HR07dkRWVpbmvaNGjdLU8eLFi/j6669x7tw53L9/H4888gjGjBmDsLAwAEBmZibmz5+Pt99+G1u2bMHt27exYcMGvfWs3gV8+vRpfPTRR5g3bx5++eUXHDt2DI6OjujSpQsSEhI038OdO3eQlJSEjIwMSKVS9OrVCyEhITrLPn36NLZs2YLc3Fw4Ojqiffv2GDt2LAIDA1FVVYXZs2ejSZMmmDdvHiQSCQBgy5Yt2L59Oz7++GMEBAQ0eL8TkfA4CISI9JLL5cjPz4ePj4+mbNu2bdiwYQMef/xxLF68GK+99hpOnDiBTz/9VPMeBwcH3Lp1C9u3b8drr72GTz75BO3atcOaNWtw/vx5vevav38/Nm7ciCeffBJLlizBvHnzAAD/+te/UFlZieDgYISFhWHfvn1an8vNzcX169fxxBNP1Hu77t+/j5ycHOzevRtPPvmkJmCqj/j4eE0e3qJFi/CPf/wDSUlJaN26Ndq1a4ekpCT07t0beXl5mDt3LhQKBebOnYtFixahWbNm+PDDD3H9+nWtZW7btg0vv/wyPvnkk3rVwdHREQCQnJyM8PBwfPrpp4iPj8eff/6JnTt3at63bNkynD9/Hm+99RY++ugj+Pr6Ytu2bVrLys7OxqJFi9CiRQssWrQIH3zwASorKzFv3jwUFxfDyckJ06dPR05ODvbu3QsAuH79On744QfExsYy+COyYgwAiUhHUVEREhMTUVpaqmkNq6qqwo8//ojevXtj5MiRCAgIQFRUFOLj45GZmYmcnBwAqla1e/fuYdy4cWjTpg0CAwMxZcoUODs74/fff9e7vp49e2L58uV45pln4Ofnh+DgYAwZMgS3b9/GlStXAACDBg3C2bNncfPmTc3n/vjjD/j6+iIiIqLW7dmxYwfGjh2LsWPHIjY2FnPmzEG7du0QFxfXoP3i5uaGJk2aAFDlTnp4eKBZs2ZwcnKCk5MTmjVrBmdnZ+zYsQMSiQRvv/02HnnkEQQHB2PatGlo0qSJVpAGAOHh4ejRowd8fX0bVJfw8HA88cQT8PPzw+OPP47AwEBNgJ2Xl4ezZ89i+PDhiIqKQkBAAJ5//nm0bt1aaxnbtm2Dt7c3pk+fjuDgYLRp0wYzZsyATCbTBHzBwcEYNWoUvvrqK9y9exdffvkl2rdvj6eeeqpB9SUicWEXMJGdKy4uxtixYzV/K5VKVFZWIiQkBLNmzUK7du0AqFp+ZDIZwsPDtT7fqVMnAMC5c+c0uYJNmjTR6m50dnZGQEAArl27prcOjo6O2LdvHw4fPow7d+6gqqoK9+/fBwCUlpYCAHr16oXk5GSkp6drRvYePHgQAwYM0HRNGjJgwAA899xzAACFQoGCggLs3r0bs2bNwgcffGDyEbE5OTkICQmBh4eHpszZ2RlhYWE4d+6c1nsbO8pa/b2oeXh4aPbV1atXAQBt2rTRek9YWBiOHTumVc/IyEit3MNmzZohKChIq57PPfccjh49irlz56KoqAiLFy+uc58TkbgxACSycx4eHli4cKHm7wsXLuDzzz/HiBEj0K1bN025TCYDAGzYsAHJyck6yykqKtL8v7qVrDpXV1dUVFTorcPXX3+NXbt2YfTo0ejSpQtcXV2Rk5ODFStWaN7j7OyM/v37Iz09HS+99BJycnJw69YtDBgwoM5tdHd3h7+/v+bvhx9+GJ06dcJbb72F1NRUvPnmm3UuoyFkMhkuX76sFVgDqlZUd3d3nbo1Rs1RwdUDsrKyMr3Lrh6Qqut58OBBHDlyRKtcLpfDweFBB5GDgwMGDRqEVatWoXfv3lppAURknRgAEtk5BwcHreDI398ff/31FzZu3IguXbpoggZ1MBEbG4uoqCid5VTPpbt3757O62VlZQZHs/7555/o1asXhg8frinLzc3Ved+TTz6JHTt24Ny5czh48CAiIyMbPe2Kk5MTAgMDcfnyZQAw2KJVWVnZ4GV7eHigRYsWmDJlis5r1QMrc3FxcQEAnYBbPYJZzd3dHV26dNGZKxGAVqugTCbDN998g6ioKBw8eBCDBg3SaQkmIuvCHEAi0jFhwgRUVFRg48aNmrKAgAC4u7ujoKAA/v7+mn9+fn6oqqrSmkqloqICly5d0vr7+vXrCAoK0ru+srIynalY1KNtlUqlVh3Cw8Nx4MABHDx4EAMHDmz0Nt6/fx/Xrl2Dt7c3gAcBrrqlU71udYDYEG3btsWNGzfQokULrX2lVCotMqWLenLt6t8BAK0Ry+p6Xrt2TauO/v7+UCgUaN68ueZ9GzZsgIuLC2bOnImBAwdi9erVmlZGIrJODACJSEeLFi3w0ksvYf/+/Th9+jQAVZ7ec889hz179mD37t3Iy8vDpUuXsHr1asyZMwd37tzRfL5JkyZYv349srOz8ffffyMxMRFyuRz9+vXTu7527drh8OHDyMnJwdWrV/HFF19ouhnPnTunyW0DVINBfv31VwDQ6qKuTUVFBYqKilBUVITbt2/j/PnzWLVqFfLz8zFs2DAAqhbMhx9+GAcPHkRJSQnKy8uxZcsWg93WtRkyZAhkMhmWL1+OixcvIj8/H7/88gtmzZqF3377rcHLa6jAwECEhobiu+++w6lTp3D9+nV8//33OiOQR4wYgcuXL2PdunW4cuUKbty4gR9++AEzZ87EqVOnAABHjx7F/v37MWXKFEilUowdOxZVVVVaNwdEZH3YBUxEeg0ZMgTp6elISkrCkiVL4OLigueffx5NmjTBf//7XyQnJ8PV1RVhYWFYsGCBVouRh4cHhg8fjqSkJOTl5aFFixaYMWOG3nnoAODVV1/FF198gQULFsDDwwODBw/GiBEjUFxcjJ07d0IqleKFF14AoBox7ODggOjoaM2UKHXZvXs3du/eDUDV1du8eXO0atUKCxYs0BpMMW3aNHz55Zd47bXX0LRpUwwaNAh9+/bVjIitL39/f8yfPx9ff/015s2bh/v37+Ohhx7CuHHjMGjQoAYtq7HefvttrF27Fp988gmcnZ3x6KOPYvTo0Vi+fDkUCgUAoH379pg9eza2bNmC2bNnQyKRIDg4GG+99RaioqJQWlqKpKQkDBo0CO3btwegCpQnTpyIJUuWoGfPnvUOwolIXCTK6v0rRERGWrVqFbKysrBq1SqzLP/QoUNYtmwZVqxYwcEIRESNxBZAIrIKd+7cQW5uLtauXYtnnnmGwR8RkREYABKRVfjoo49QUFCAfv36YcyYMUJXh4jIqrELmIiIiMjOcBQwERERkZ1hAEhERERkZxgAEhEREdkZBoBEREREdoYBIBEREZGdYQBIREREZGcYABIRERHZGQaARERERHaGASARERGRnWEASERERGRnGAASERER2RkGgERERER2hgEgERERkZ1hAEhERERkZxgAEhEREdkZJ6ErIEb5+flYu3YtsrOz4eLigujoaIwZMwYODoyXiYiIyPoxAKxBqVRi8eLFCAwMxJo1a3D37l0sWrQIzZo1w9ChQ4WuHhEREZHRGADWcOHCBVy+fBn/93//Bw8PD3h4eGD48OHYuXOnXQWAcjnw1VfA+vVAfj6gVKrKJRLA1xdo3x44exYoLHzwmlrN99y6Bfj5ARMnAmPGAFKp5bdHLGruV0C1rzp2VL02cCAQE2Mf+0i9LzZuVP0dH8/jw1SqH2cFBfZx/snlQFoakJ4O9O9v3vPIkusiMheJUlnz59u+/fzzz9i+fTtWrFihKTt//jxmz56N5ORkNGnSRMDamZ9cDiQnA2+9BZSWmnbZEgnQvTvwxx/2d7Gs7351cwM6dQIOHLDtfSSXA717A8eOad9c2MrxYengtuaNxbVruseZLe1fNfV2r1unOpYqK4H79817HsnlQN++wJkzQFkZ4OgIhISo/nZzM+26iMyJSW01lJSUwMPDQ6tM/XdxcbEQVbIIuVz1YxUQACQkmD74A1Q/9KdOqe6c7YVcrvpx8vau336VyYCMDNvfR6mpwIkT2q3HtnJ8yGRAWJgq6EtPV/2Ljwf69FEdD+Zc3++/A+fO6T/OSK1QHwAAIABJREFUbGX/AtrnVXy8KqgtL1cFf4B5zyP1sVtWpvpboQAuXgQiIszz/YqJXA6kpKiuZSkptr+9to4BYANIJBKhq2AWMpmqu3biRFWXrjlVVgL795t3HWKhbuVqaEAtk9n2PpLJgNdfV/1w1mTtx4dcrgoEcnO1y80RfFUPgmquzxBr37/Ag4C3rvPKHOeR+tjVF/hcuWIbwbUh6t+J+HjVcTd5sqollEGg9WIAWIOnpydKSkq0ytQtf56enkJUyaxkMqBVK9UdrCWSAZydgX79zL8eMVC3FDSUm5t59pH67v2VV4BJk1QX7/btVT+m7durcpmSk817QVcfbzVOMQ1rPz5SUw0HY6YMvqrfXFRU1P9z1rx/1b0U/v71C3idnEy7rXUdu1VV1h9cG1L9d6Kq6kGZPfRW2DIOAqmhTZs2KCgoQElJCZo2bQpAlQMYGBgIV1dXi9XDEknG6taKggLTLtcQiQTo0kW1LbZMnZf02mv6W7lqo85dMvU+kslU3/Xly4brdO6cqgtx1Srz5InV53iz5uNDLgf+8Q/DN1KmDL4ac3Nh7vPPnHmP6ry7Eyfqf4MSHGy6ba3PsWuuGzeh1bbt6lbWuDjL14uMxwCwhlatWqFNmzZYv349Xn31Vdy6dQs//vgjXnjhBYvVQX2xy8hQnWDqwQOLF5s2kby21orqnJ1Vd38SyYMRvmFhQHa2/otCzfcUFgItW9rHKM+G/FA5OwOtW6tGaHbooLqzHjDA9MG++u69PoF+9a5KU1/U09JUAaghkyYBK1da7/GRmgrcuaP/NVMGX+pAsz43F+7uQFCQ+c8/mUx141L9epKeDsyfr7qOGTs4Ii1NtZz6Bn+tW6sGZVjqWunsbJ4bN6HJ5cAbbxjedlO3spKFKUlHYWGhctGiRcrY2Fjlq6++qvz2228tuv7Nm5VKNzelUvVz/OCfs7NS2bOnUllZafw6KiuVSh8f3XWo/7m4KJX9+yuVGzeaZn32YuNG1fdkaL8CSqWHh1L55ZeW2a+VlUplaGjt9dH375VXTF+X+HjD6wsNte7jrLbzycnJtN/3xo1KpaOj4X3p5KRUPv645c7de/eUSl9f8363tR071a9Z5tjuuq6VTZva5nWyslL1e1PbsWbt5629YwAoQq++aviEc3NTBYjG2rxZqZRK9a/D11d1UaeGqeuHQiJRKidNsuwFc+NG1XobGgCa+sJeWyBq7uOtslKp3LBBdUNjrpsaQ0GZo6Nq3aZS1zHWurXlzl31fm3atPZjycnJuGtWXTcxTZua94bKXq+Vhhoi7GHb7QUHgYhQ//6Gu0xMNbJt71793SlNmwKXLnE+q8ZISwPu3tX/mrMz0KOHZbs41SMWlcqGf/bqVVU+l6mkpqqWWZOvr3mPN31TskyYoCqTyUyzjtq6ZL29gdhY06wHqL2bedIkVR6nJc5ddarDpEmGB0WoGTs4wtCx07SpKt/w1i3VDAbmOq/s9Vq5d6/+c0QiAUJDbXvb7QUDQBGKiVHlk+i7oJki0VguV/0Q1iSVAsuX86RurPR0/T8Urq5AUpJlJ3dWJ24b+nH28FDNSxcWBnh56f/8rFmmGRGsDpD0Leu558wb/LVqpT9/KTfXdPO2GQr8HR2BTz4x3XdeW6Dp62vZm4vUVODkyfrtP6lUNWK5MWo7dkaNAsaPN+822+u10tB2Ozqqpn/JzrbdbbcnDABFSCpVBQtJSaoLu7OzqtxUI0TT0oAbN3TLg4JM21phb/r2ffBdqUmlwJo15v+hqqm2ARdNmwI3b6qOsexsw4HD7dumaQU0FCA5OwPR0cYvX5/6jNrMzTXN9hkK/E3d+mepQLMu6qCssrJ+76+qAlavblywLcSxU3P99nitNLTdISGqwNdaB2qRNgaAIiWVqrqqrl0DEhNVF7sePYCpU41fdnr6g1nsqxswgCd2Y8nlqkCq+o+cRAJERgrzQ7F3r/6WIolEt+UiJkZ/K6BCYZpWQEMBkpeX+UZN1meEu1Jpmu0zFPibOiizVKBZl9pSHSQSwMdHe38olUBmZuPmixPi2Km5fnu8VtrrdtsbBoBWYM0a4PBh1Uk5darxs6/r+8Fyc7PMHbVYqCeVjY5W/TN2AuS0NCArSzvfzslJ9X1Z+oJpqPsGUE2PUTNYkEpVUww5Ouq+/+5d4yd6tVSApFbXfHzVGbt9lgr85XLV8eRUY+Iuc+5HQwzlxLm6Ahs2AMOG6bYONjZ32dLHTnWG9rlYr5WmfEybvjx0sW43GUHoUShUO30jsYwZCVxZqVR27649MlQiUSp79LCf4fz37qlGS9YcoWvMPjA0cjshwbR1r4/Nm5XKJk0aNmqvttGlxmyDEMdbXdOkmHL79J2fUqnpR/727Kn7nbq5mW5aqIbURd+I3OrbbKprlpDXKjHt8/qoWV9HR9X31NhRuvfuqT7v5CTu7SbjsAVQ5NLTdUdiGTMSWEwtVUIw17NaDd0xCzFJ6t69+rtvahtwoW4F1NcybMw2WPp4q22ghIuL6bdP3/kplwN//tn4ZdakngS5+nfq6AiMG2fZgUXqutSVE6cexKY+1hqbuyzktUpM+7w+0tJUE1+r66tQqB7b1piBTnK5qqv3xg1V/qajo+rxe7/9Jr7tJuMwABQ5fYGFMaPqLPGDJWZ1Pat1377GLXfkSNVFUt1dZK5HutXFUPdvfbpvxoxRdV2qjzepVPX/CkXju5MsfbzVNlBi5UrTb58lAn99+1ChUP2z9A+yoZuL6rlh6kFsq1YZl7ss5LVKTPu8Pgx9L1euNPymtmbwq1AAeXnA1q3G15PEhQGgyMXEAB07qvKK1IwZVSemlipLq09u2G+/Wfcds6EWGn//uoPR6j/cvr6qY66w0Li8U0sfb4by07y9VSOxTb19lgj8xXLONvTmwtjcZSG3Wyz7vD5qy/mtqmr4Ta2pe51IvBgAipxUCkyfrh1IGDOqTiwtVUKobfSiWl6edd8xGzt6TypVHRv37j1I5JfJVNsn9uOttjnb1IMGTLl9lgr8TdWlaqyG3Fyozwl1INGYfSzkdotln9eHoe9FraE3tdYU/JJxGABagQMHTDOqTkwtVUIw1DpUXWP2q5jumE0xwttU22Pp462+c7aZavvqE/ibamTma6+pulKjo1Wt/0LkoTXk5sIU+1jdIp2YqNp/iYl1b7cpR8KKYZ/Xh6HuX7WG3tRaU/BLxmEAaAVMdUcmppYqS6utm6S6xuxXsdwxG5qSJDy8YRdvaz3e6hugmGr76gpy1I9LmzwZWLdO9d+GdoOqlzFtmmp9hw+rghEhNOTmwhT7WC5XHUPp6arPxcTUHfwZu7+rL0cM+7wu9bmuWSLwJisl9DBkqpt6iL96aoXGDskX01QllmZoahQXF+P3q6m+H2OZakoSU00pYenjrb7Tj5jq+6prfaaYDsXU00A1VkOnZDF2Hzfm86Y6/sWyz+vD0HXNGupOwmMLoBUw1ag6sbRUWZpcrmoR0Nc6NGaM8fsVEEd3kalGTUqlqm7ahx5S5cupW+4GDBBvLpFcrupmdnev+9GJpjqf6uoq+3/tnXl4FFXW/79ZOhAIO2QiSxCCgC8MMCguCCYi8CqP+0gCCUES9ggqbuMw47AI+ogyoGGRIBC2MBBFkEVUSNgXERl2eUMS1iTsIYQs3Unu74/+dZtOeu+qureqzud58kCqO1Xn3K3OPffccx15CJcscb8cRQkv8DQli69eJG9iCB21f09PexGlzN3Bkdfbl5hbKZfRCcHhbYES7iGF10IUT5WSWHQ2GOzPjJctU95TIRdSei6kuJdSZVPzOQaDOel1aqrjZ0klm9FoLpPRo83/Vv97e2UIMBYU5P6zRPFGKe3N9eZ5K1fa7+dBQer0urpDaqpZv+qyBgczNm6c/TbpCpHGM0J+yABUCVJm13f0wtIirl7Cqam+latILwspB2+pXvhKtDdv6kCJenM1+XDnWaK8kJVu5948T6rTbEQpc1c4W5a/d89cVqNGedbvRBrPCPnhZgCeOnXK7Z/jx4/zElMY9By/5wuOyi0qyjwo+lquItWL0Wj2aEZGmvVz5gFzhZpeBN7Uga/1ZjFsXb1gjUZzfUjxLJ6TNm+NInfLSarn2fOIaXWi7CjmcfFi7w1YkcYzQn4CXS8Sy8O0adM8+v5aX0+kVzmRkeZTLKrHpviyqy4y0vWuOi3gqNxGjjTr7mu5SlEvUmDZuWiJm6pXz/xvbKx394uJAZKTbe/nSSyRkm3Nmzrwpd5qlnVamrms7MW4GQzAqFHA4cPetxGDARg2zPzDk/HjgdRU887yESPMbcudXbnulFNNLDGEa9eaY+/c2QUMmGVasMD7dmuRWw3jpKOYx9WrHcdPumpDIo1naqgD1cPL8qzu4Ttw4ACbMGECW7p0Kdu3bx87duwY27t3L1u0aBF744032IkTJ3iJKQw8dtVpAVeHmmulXOXw2HnrBVG6TLw5uN4XGT0ta1+e5a0HTUq8lZ+XF9lSZiNHmmPhEhLcLztR+rM7OCpfXzzOvPW3rGK0aPGHJ1fkOlA73AzA6syZM4dt377d7mc//vgjmz17tsISiYkvyxJqWtKTCnfTmfi63CPCcpFcSzfeGCBKtjVfUtZ4W2/elLU3z+L9MrbgbX3yXE5Um9HqDY509DWumdd4JkXMLOEZQhiAr732GsvPz7f7WX5+Phs+fLjCEomLtx4BPcZ2qGkw9xW5PIDevESVbGs86lipZ4rSfr2tT57yq9Fo9RRHMb+iTBw8xdGGPZHrQO0IkwcwJyfH7vXz588rK4jA+JLpXo85AD3J5+Vt7itRcmbJcXyTt+e5KtnWfM3Z5k39eVvWnj5LlHx03tYnzyPFvC07tYyTzk4rUetJHhkZtevMgoh1oAl4W6CMMZacnMyGDx/OUlNT2Z49e9hvv/3GDhw4wNasWcNGjBjB5syZw1tEIfBlRq3WWaEvyH0yhChlavEKJyaaY54SE6VZuvHWG6JkufDqE54uk3nzLFE8gEqWU82/8zb20duyE6VPu0KUtiEVRqM5dMPeeONJ3kzCM4QwAEtLS1lycjKLjY1l0dHR1p8hQ4aw2bNns7t37/IWUQikSl0hcmoDKXF3MPd2MBVhEJbzheWrcaVEW1NyM4cveJvXThRjRMmxQwq9eRitSqKmpWp3WLnS/pF2DRr4ls6KcI4QBqCF8vJydv78eXbmzBmWk5PDSktLeYskFCIYHGrC3bx43g6mIgzCcrYJkQwQZyi5mcNbfPGm8jZGlN6JLFWbFqHs5EKufs9r17mj/jFypDLP1yvcDUCTycQ+++wzVlhYyFsU4VHLC1kEPCkrNXsA5TZi6CVaG9F3RksJjzFHhImV6LhbL560VZ7vF6kSeBOewd0AZIyxMWPGsJycHN5iqAItv5ClxJMXrppjANVqWEiFLx4Lb+pPzW3FG7S8y9oevDxg3uDqXeBpm+NV7kaj4yPtRC5/LSCEAXj48GE2Y8YM9ttvv7HCwkJmMplq/RC+oaaBTQo89SL4GqzOyyAX0bBQqq1JFSvmSf2pIS5SSnh443i1aRH7kiPc6WOetlVenld7choM5vAdQl78GGOM907khIQEVFZWory83OF39H4UnC/YOyasa1d1pAbwllWrzGlyah5ptGgR/yO1pMZybJInR2bJKYtSbY1HHY8ebU7BZO96Soo8z+SJFGXszbFeUrVpT56tljHD3T7maVvlpb/e+pRQ8LZAGWNs7dq1bN26dU5/CO/R4zKhmmbzouOJR0/JtsbDY6G3vuRrP+LZDz19tlpiD91tg562VV51pbc+JRJCGIDOKCsro7OAfUQtA5vUqHHJTTREfonyeHEo+ZIUJWzDl37E8+Xu6bPVYoi428e8jXFVesz05ixvQhqEMwCrx/0ZjUb222+/sYSEBN5iCYWnLwa1DGyE58htJIj8EpXKGPO0DJV4SWrFg81z8ulNHLAaytzTDW4iT4ItZe7NWd6E7wgRA1hcXIyUlBQcO3YMZWVltT5v06YNPv/8cw6SiYc3MVZ6jAH0Ju5IxGe4er7c9eppfI7Sbc3XWDFR+4Za4tFcwVMPb54tUjytI0Rts96glXauWnhboIwxtnDhQpaUlMRWrVrFhg4dypYuXcoWL17MxowZwxYvXkwngVTD19xlos4EpcSXVB1qyJllQQlvmzfPUFNbU9o77m4bEyVsw1cPs5piANWEmvqYM0Rp53pFCANw3Lhx7MyZM4wxxuLj41lBQQFjjLF79+6xf/3rX+zIkSM8xRMK6jCu8dZo4Zkzy5sXrRJtQeSXqBTL30r2J0/KUsr25W05Sb3EzsNY0YqhpFUoPIkvQhiAsbGx7MaNG4wxxl577TV2+fJl62dnzpxh7777Li/RhIM6jGu8eanzzJnl7YtWqbYg4ktUKuNEyf7kaeyWVMaXGs5KJtxDlI1BUiHyBFMP+PNeggaAxo0b48qVKwCABg0a4MKFC9bPGjVqhIKCAl6iCUdMjDneo1498++W+I+YGL5yiURk5B/lY6FePXNMjyN27bKNQwHMv+/eLd0zHLF27R/xPJbnHj0KrF7t/O+UagsGgzkeJyXF/K8IcUb2yuzkSfN1T1CyP3nSxgwGc0zXokXmeMtFi7yL8fK2bXkqLyE/lti/sWPNcbljx5p/N5l4S+Yb48cDvXoBUVHAggXqjGVUK4G8BQCAhx9+GHPnzsXnn3+Ozp07Y/ny5SgtLUWDBg3w448/IjQ0VDFZXn/9ddy6dQv+/n/Yxt26dcPf/vY3xWRwhuXFIHqgMk9iYoDk5NpB0s5e6pGRQFpa7WBkRwadN89whL0XrckEvP8+EBfnuG713BacGSeeBI97Woa+bPzxtI1ZDG9fguG9bVveyCsVvDdXiYqzSY8aN0zY28xSUgLExvKWTEfwdkEyxlh5eTlbuHAhu3v3Lrt58yb74IMPWHR0NIuOjmaJiYns2LFjismSlJTETp48qdjz5EZrSwbu4umyJc+cWStXmo8+qrmcHBSkn+U2NaQ2UmNSZF/aFg95eW8aEXms1Fr8N4UY8EcIA7AmVVVVLD8/n+Xk5LDy8nJFn60lA5DiKzyDV6yb0chY8+baGtw9wVvjm4cx5esLS+k25mvbUlpeXkaBGsZKrRlMWjNo1UjA1KlTp/L2Qo4dOxaXL19GRUUFmjRpgjp16iAkJARNmjRBQECAorJs3boV169fx+rVq7F+/XpkZ2fjwQcfRN26dRWVQwrWrAGWLv1jycBkAm7fBtq1A7p14yubiAQEmMvl+efN/yrV9AICgD/9Cdi6Fais/ON6vXrAhAnqqiuTydzukpOBoiLgwQddl6M37TQgABgxwvyd5s3N5fTvf8u7VJicDBw6ZHvNZDI///nn3buH0m3MUdsyGICkJKBHD7HklaKMvUENY+WDDwKbN5vlMpn+CDv597+d14u7fdKbvusLRUXAjz/axjCqccxTNbwtUMbMZwFPmTKFxcbGsiFDhrDJkyeztWvXsrNnz7KqqipFZZk1axZbv349u3v3Lrt+/TqbOnUq+9e//qWoDFKh1xmW6Es59vBlCVoJPd15lrdeFLW0U7V6YIxGxh5+mDE/vz/k9vNjrFcv8foGrzJWug0ajYwtW8ZYZKT5JzXVvbqQK7RFb8v9hBkhDEAL5eXl7Pjx42zNmjXsww8/ZEOHDmUJCQlszpw5kj1j165dbPDgwXZ/MjMza33/0qVLbPDgwSwvL08yGZRCrS8sC94YOGoeVCwvhago1y8FJfV091netjd7f2cwmMtCJNTctlJTzXF/oo8FcpSxO+OI0kcYKmWQu6sXz6V30VJM6QmhDMDqXLlyhW3ZsoVNmDCBRUdHc5OjvLycDR48mJ0+fZqbDN6i5heWtweEq9no5ZUo2BXuPstbL4qaPFRqfWF5cy4uLy+6lGUsogcsNdV85q03G3M8xd16V4sXnpAWIfIAAsCVK1fw008/Ye7cuRg7dizee+89HDhwAI899phiKVhu3LiBr7/+GhUVFdZreXl5AIA//elPisjgLiaT+RzF0aPN/9rLBSVVLjGlMZmAP/8ZyMkBLFVRUgIcOQK88YbzvFdqzl3mSW47JfV091ne5kY0GMxxP9XbJWPAqVOO8/q50/49wd37iZgT0R08qRve+eakLGN3+5RSY6XJBLz7rm08pgWjEdi5U9rnuVvvUuY1dRep+zDhBbwtUMYYGzVqFEtMTGQzZsxg6enp7MSJE4rv/mWMMaPRyMaOHcuWL1/OysvL2c2bN9mUKVPYrFmzFJfFGWr27LlDaqqtN6j6T2Cgske0KYkns3ARPYC+tEtPdJe6/Wu9PzEmrndZbkTzbDlKy2P5ad/eediHXCExSvcBPfQ5NSCEB9Df3x8VFRVgjMHPzw8BAQE2iZiVwmAwYPLkybhw4QLGjBmDv//977jvvvvw+uuvKy6LM6Q6BUFELDNkxux/XlHhXFc1n5TiySxcST3dfZYvXhRPdJe6/Wu5P1nwpG7k8i7z8Pjw8Gw5IyPDud4FBfbbnbdeWXfrXenVIj30OVXA2wK1cOXKFfbjjz+y2bNns8TERDZs2DA2bdo0lp6ersr4OzkRbVYrJY7iYzzRVYk4LTlipDydFSsZjyb3szzRXer2r+X+5A1yeAB5eXxE8jQZjWYPnzdjm5a8soxRnxMFYQzAmuTm5rLvvvuOJSUlcd0EIiJaGwwsOEtaW/2H9w5ROV8qat1kIAXu6i51+xexP8m1CUPOdD7O4FnGovSplSsZCw52PrY5KhOtGUwi9jk94seYo8U25TEajTh79izOnDmDM2fO4P/+7/8QEBCALl26CHMWrwjYO0Oxa1d1bPBwxqpVQGKi/WUNP78/loX9/ICHHwb27ZNHX1dnka5aZV6CqXlG6qJF6jyTU21I3f6V7k+u2pdc8nhyX4uMUp0xPXq0eenS3vWUFO/vqxZMJmDAAHOd1yQw0Bza4qw+tDbmaPUdpjaEMABXrVqFM2fOIDc3F5WVlWjfvj26deuG7t27o2PHjggMDOQtonBIPUCLQGIisGxZ7eshIeYdckbjH9fkGvzcGZj0/jKTE1fGUc3vSdX+lepP7rQvuV72PI0IrRkwnmCp86NHa09ug4OB114z7wp21u60aDBp8R2mOvg6IM2MGzeOzZ8/n+3du5cVFRXxFofggKP4GIOBsSef9GyHqC9LZ+4sTci9fKHGk0ykQKR4Lblwp+3ItdzHcxlRD3XrCHt1Dpjz/j3yiDnnqTv9XZSlbEI7CGEAWjCZTCw3N5cdPXqUSxoYgh+O4mPatzdvDJE7DYkFd16ScscAupu2QWtGoh7igtxpX3KVA+/y1asB46jOo6LMxp8eDWMtjl9qRBgD8JtvvmEjRoxg0dHRLDo6mhUUFLDbt2+zyZMns+LiYt7iETKTkGB/kBw5Uv6jyLy5h1wvM3eer1VvitYC3e3Bs3612m6kQE6DxNkxfLyNch5QOxQHIfIAbty4EevXr0dkZCTee+89BAUFAQACAwNRVVWFtLQ0zhKqE7VkWjeZ7AdH16sHREW5n6NKivxlnuS8k+NECHd00GoOLdFyttVEiv7kTvuSKyebWk8Gkhs5Tz4xmYB582zv5ecHdOlirnM1n1xkwWQCUlPNY3VUFLB8ufOy0+r4pUp4W6CMMTZx4kT2888/W3+Pj49nBQUFjDHGTp06xcaNG8dLNNWiplmWs+VfT+SVajbNc6mKZ4wYb0Re/payP4m+FKq35Tk5vXD27l09jZXaPYD37jHWrp2t/K7O8dbq+KVGhDAAhw4dajX4GLM1AK9du8ZiY2N5iaZa1DSwOBoQRo60/Z6rF5OajF5HuKODmurWU1wZR7zqWMtlXh0t9CFPkdMgcXVvkSc9rnCW2DooyHHf0EtfUgNCLAE3atQIubm5dj+7cOECGjZsqLBE6kdNSwt9+gD/f9XfimX514I7yzRaWOJyRwdex90pEVLgammd1/KRmvqTL/BentPacXGu7u1Of5dzidoX1q4FLlyw/5nRCCxZYl9GNR/XqTl4W6CMMbZ06VKWmJjIduzYwfLz89nw4cPZuXPn2K+//sqSkpJYamoqbxFVh1pmWUYjYw8/bF42cLaEoBZ9lELpZUR3PBVKeCl4LR/ppf3pMVWMnM+9d8/sJQsM9P7eorY9Rxv3qnsBHekqehiEXhDCACwrK2MzZsyw7gCu/jNz5kxKCeMFalnKcRUjY4HiRvji6iWkVHvj9TJUS3/yFZ7GhtaOi7O0GUt8c0CA2Ri8d8+z+0gx9kk9OXP3XGMRDFXCMUIYgBbOnTvHfvjhB/btt9+ybdu2sezsbN4iqRo1zLIczSJrDm6izoL1gquXkJT14+xlpcQ5zM5iTEXvT+7Aq3xdIeckj0cMnVR9wtf7yFGnqanmiborA5Am6WIjlAFI6AtHs0i5kjwT3uPqJSTVy9uTpWY5vDVab1+8ytcd5Jrk8apbT/qEnEa5u7kn3TWQjUbGmje3r5tlqdvVWC7ahha9wtUALC0tZTt27GDp6eksMzOTlZaW1vrOnTt32Jw5czhIJz5q70iepn9xZ4eomstDZFy9hETxdniLXjzMIuspl6HGS2dnCaCrI7dRLtVO5Op6BQTUvp/BYB67nS1562WipRa4GYC3bt1i48ePt4n3GzNmDMvPz7d+JzMzkyUmJrJhw4bxElNYtNCR3E3/4g5aKI/qiGjMOnsJSVX+vGI99RJjKrqecngfeejs7uY2xuQ3UF3d35PnO/P+tWjBWGGh800vIk9A9Ai3NDDp6ekICgrCjBkzsHLlSnzyySdo2rQpli1bhmvXrmHmzJlYuHAhOnbsiH//+9+8xBQW3ukafMVkAgIDzT/VqZn+xV3UXh7VETXtg7MULVKl4OF1Gojop5BIheh6ynHCDg+d164FTp82mzgWAgOBpCR5TjByhqu0K548f+3Ws2ooAAAgAElEQVRa4M6d2tcDAoBZs4BNm4CCAqCi4o/7VB+H9ZJOSTXwsjwnTJjAjhw5YnPt4sWLbMiQISw+Pp4lJSWxw4cPc5JOfESfyTuj5u646jNBb712ai6Pmriz41Y076BUaDEViEjoRc/q8NDZk/FICa+YM8+qJ893pFeLFuZ7KrlZjPAdbgbgkCFD2PXr12tdj42NZcuXL6fULy5Qc0eyJ3tAAGPjxrkelB0ZP2ouj5o4G0T18ALntQlBK7t8XaEXPaujtM6eLqvy7NOePN9V2i5R0kUR7sHNAIyOjmaFhYW1rlc/Bo5wjJo7krfeOmc6K1UeSnjfnA2iWjJ0vUHL3k9CO3iaANpVfK3cbd5dA9nVOCvyLnOiNmQAqhi1diR3d8fVxN2lUbnKQ0kj09FztLTU7SlqnvSoBTKwfadmiIu3CaCr30ukNu9uNga1vZf0CFcD8M6dO7Wux8fHs6tXr3KQiFACT3bH1URJ48fei1BJ75ujQVTPHkAt6e4q7xsPI0xEY0ONSNlOtdTmCfEIdL1NRD5SUlJgqLElqqKiAsuWLUPdunWt1/z8/PDGG28oLR4hA57sjqtJZCSQlma7i0yO3XyWXbiWXcVpaUByMtCli+MdbMOGSSuDZTdkzfvGxJhlscimp4PUne0glLr85cRR+9q71/y5o8+k2BHrDGc76aUqX5PJfL9du8z9OSZGfr2URsp2qtY2b6+eAe3XvdrgZgA2b94cubm5ta43adIEFy9etLnm5+enlFiEzNgb0EwmYP9+YMQI53+rlPHj6EXYs6f5mXIboM6wpFtZu9b8EnjySf0MpEpNAOTGVcoiuY0wR8htbDgzfLXUfqVsp2ps8/bq+YsvAD8/4NQpbde96uDtgiT0hbfxfxaUiC9xlqCalsj4oZUlSmehDDxjPHknJNYKnm4AcYYa27yjncK+jPuEPHBLBE3oD5MJmDfPNqGxn595adVdL54ciWJr4ihxbFSUNMmOCdeYTMCqVeZyXrXK/LtUyaZ54ywxMc9Eza4SBvuKqEmA7bU1X+711FNAfr45GXJAABAWBmRmum6nWmnzjlZ5jEbbayLUve7hbYES+sFVDilfkDJwXo2zbi2h9fIXIZ2RRY6afUZOD7uIHkCpy9tbHbXU5skDqB7IANQoIqZzSEiQZ3lLjsGTUhnwQ0RDQWrcyfsmZ9vjYXCIaORI3da8XcLXUpu3V88PP2zO9CBS3RNkAGoSEQdao9EcF1NzYJRikNPS4EmImetQxAmVL/DqM6JNrKRua97GOIvY5n3BXj2LVvcExQBqEle7DHnJlJ9f+3pYmO8xRqLGFhHewTMOzh6WXY1jxwJff23+t08f32LFeMOrzygRw+sJUrY1X2KcRWvzvmKvnkWrewLgZgBWVFS49T2j0Yhdu3bJLI22ENEg2rULKC2tff2pp3wfCLQ2eFqwFxQuZcC6qMi9GcFTRJxQ+YpW+4ynSNnWfMlxKlqbJ/QBNwMwLi4Od+7csbn2n//8B8XFxTbXSkpKsGDBAiVFUz0iDu59+gBBQbbXLDtrPaWmEfTKK9obPO15nXr3Bp54gq8nSgkDVLSdjyJOqHyFDA4zUrY1ZzlOvZUD0MaETw8TV1XCa+3Z3lnAw4cPr3UO8O3bt1l0dLSSoqke0WIAfTn+zd697Ol275624ktE3EnHu13xisPTaowpxWRJi685TmvCu7/5iqV9JSaa47/VqoeWEcoAjI+PJwNQIkQa3KVM/6LVl3FNHAWF8wwUd1b2chtnPF+Gan8RuwvPjS5q32Qj5STXgprHupp9Ro7Nf4Tv0CYQjSJSwK0vSyPu3Evty3H2sLeMbzDYX0ZXamnfUdnv3Cn/JgmecXiiLUnLAc+NLlrYZONL/J8j1DzW1eyvNVGLHlqHDEANIHp8haP4P2/PxhQtvlEO7MVode9u/uEVt+Wo7A0G+Y0zpV6GjvqSSBMqOeBpYCv1bDnHSSknuRbUPNbZK4/qqEUPraNLAzA7OxsTJ07EP/7xj1qfnThxAu+99x7i4uIwceJE7Nmzh4OE7iP67FmK49+qo5fgdXtep/37gX37+HmiHJV9ebn8xpkSL0PR+5Kc8PQ2KfFsuerWZAJSU8390L/G29TX9in1WKeko8Bef7Wg1TFblfBae46OjmZ37tyxuRYfH8+uXr1qc03qGMDdu3ezcePGsZkzZ7LJkyfbfHbz5k02bNgwtmXLFlZWVsYOHz7MYmNjWVZWlmTPlxrR40TkOP6tenzjsmXm4Gu1xg6pDXuxpUq0QSXi8ETvS3LCU3clni3HM+zF/VW/txTtU6pYblfHD0odf1nzecHB5o0giYk0TouEH2PVoxaUIyYmBg0bNoR/tWlTYWFhrWtVVVUoKirCWonWAzIyMtCjRw9s374dx44dw8yZM62fff/999izZw8+++wz67W5c+eiXr16GDNmjCTPl5rRo80zWnvXU1KUl8eeHHLJZ5nVW5aPLDNLrcVniY5S9WAymZcFd+82e1ZiYqS9v+h9SU549iUlni1H3a5aBSQm1vak+fmZPYxffinOOLRqlVmm6p7WevWA+fOBhQvlKXu5+yvhO4G8HhwZGcnluf369XP4WU5ODtq3b29zrV27dtjvSyCHzERGAmlptTu2KPEVcsrnLHZo2DDf70+4h2W5Wu7B3hKHJ1fdit6X5ESpOuT1bDnqdtcu+8uojAGVld7LbzGcdu0yyy1FWThaZl++XL4xVO7+SkgAbxckL9auXVtrCXj69OlsxYoVNte2b9/Oxo0bp6RoHiF6igo55dPa+ZkEX0TvS4T3yFG3K1eaw1lqjj9BQeLl/nO0BB4ZKf8YqvYUP1qGmwewJrdu3cKtW7cQFBSEZs2aoX79+l7dZ/fu3Zg3b57dz5KSkhDl5OgJPz8/j66LAM+ZuzvIKZ+ePTZ6QA5PiDNE70uE98hRtzExwBdfAEeO/JH+xc/PvFPf2w0Ocq1qxMQAycm1l3oTEoDDh+UbQ2su76elmeWgMB0x4BYDaCEzMxMbNmxAQUGB9Zqfnx86deqEl19+GT169JDluevWrasVA/jll18iMDAQSUlJ1msbNmzAoUOH8Mknn8giB+E9SsctKW2Q6Bm9xndSG1MXJhOwerV5KRUARowAYmO9rzO5Y6ZrGsCAvP3MUezhokW0NCwCXD2AK1aswJYtW9CtWzc8++yzaN68OUwmE/Lz8/HLL7/gk08+weDBg/Hqq68qIk9ERAR27txpc+3cuXOIiIhQ5PmEZyjpsRFhJqsn40CP8Z082pie2pQcGAxmo2/ECGnuZ29VIyDA/GMy+VY3jmLy5BxDMzIcp/jRaj9WFbzWnk+cOMFiYmLYrl27HH5ny5YtLCYmhp04cULy59uLASwsLGTDhw9nmzdvZmVlZezAgQMsNjaWnT9/XvLnE+qCd4oQvcWnOYrvjIrSrs5KtzG9tSk1YKmT4GB50sooidFoTv1Cx8CJC7dE0D///DP69euHJ50EGwwaNAhRUVHYunWrZM998803ERcXh/Xr1+PcuXOIi4tDXFwcrl+/jkaNGuGDDz7Azp07kZiYiDVr1uDNN99E27ZtJXs+IQ1KJDWt/oyvv+Z7LBPPkxp44CiR7P792k3OrHQyZr21KTVgWdV47TXzUXIW1Fg3a9cC+fm1r4eFURJoUeC2BJyVlYUJEya4/F5UVBTmzJkj2XO/+OILp58/+OCDNnkACfFQYqms5jMMBnOAd/WIWRHO4dXqUoolaP3oUVtjz2jUzlJwzeXXPn2U3dTkqE0tWUJLwTwxGICKCvNPddTW33ftAkpLa19/6ilqW6LAzQN4584dhIaGuvxeaGgo7ty5o4BEhFpQwnNR8xkWI8RyprFSxxlZvJBZWdKdp6wGLJ6Q3r1rf6aFg+TtHU02b575iESljjnUo5dVLaj5HGALjnRwkoiDUBhuBmBFRQUMbkwD/P39wfhuVCYEw5Hnosb+HcmfwZjZIFHqHN7qRoIl6awlI5EeztM0GIBRo9T/IrSHvUnM6dNAUpJyZz1bzpqtef/qXlato+T5uJ6ghTPPtaCD1uFmAAJi59cjxCUyEggOrn09M1O6AdzR7HXkSHM6hmHD5F/GqGkkMGaOC4qKUsYAFQGtvkQcTWL27ze3LSXamNa9rK6w54UVxfNpqRulJgNyoAUdtI5QZwHbQ+qzgAn1YzIBnTsDOTm216XMLyVCHjo9n01bHS2eKSpSfjSlZREl9YxIdUAQPOBmAC5YsMCj71dPzkw4R5QBVk4SE4Fly2pfl9I44m140AtKu4gwweAhi0h60wSL0DvcTwIhpEWkAVZO9GAc6aUuRUeuCRXvCQYPWUTqtyLJQhA8ENoANJlMOHjwIHbu3IkPP/yQtziqQC+Dml6MI5GMBD2il3amFCJ53ahuCb3D9Sg4R5w7dw6ZmZnYv38/SkpK0KZNG94iqQa95ItT8hg4njg6volQBj0eSScn9o46Cw42H3U2erSyISsijyF6COMh+COMB7CoqAi7d+/Gzp07cenSJdx3333o3bs3evfujdatW/MWTzXoxQOoN/T6QuCtt0geKy1Q0+sWHAz4+5t3uJMXzgx5Jgml4GoAMsZw9OhRZGRk4OjRowgMDMTjjz+OzMxMzJo1i45g8wIaPLSHaHVa0yh75RVg/Xp5YuR4600TKumpHtYQEACsWEHlWx2l2hzvyRXBH24GYFpaGnbv3o3bt2+jY8eOeOqpp9C7d2/UrVsXMTExZAD6AMWNaQuRjBAlPTgi6C2CEaplyMNaGyXKhNo1AXBMBL1x40Y0atQIn376KT766CP069cPdevW5SWOprDEjSmVsJiQF2dxnUpTMyautBS4d0+eY/lE0FsPyWx5noahhSPPpEaJMlHiOE1CfLgZgJGRkcjPz8eHH36I5ORknDp1ipcoBCE0Ir0k7RllNZHKSBNFby1PqHifhqHVk158QYkyEWFyRfCHmwGYlJSElJQUvPbaaygoKMD06dMxceJErF+/HgAdE0cQFkR6SdozymoilZEmkt5ahbcnSGkPq6hn/1ZHiTIRZXJF8EWYXcAXL15ERkYG9uzZg+LiYnTp0gVRUVHo1asXgu0d/ErYQAG92kaUuE6ld3GKorcS8OjDeorBo7i3P6CyIACBDEALFRUVOHToEDIzM3HixAkYDAb06NED7777Lm/RhIU6M6EkNY0yyy5grRhpPAwxXn1YhI02SqEnXd1BT5Mrwj7CGYDVuXbtGjIyMrBr1y4sXLiQtzjCQgMbQUiD3gwxPU0e9eTtJAh34BYD6A6hoaEYMmQIFixYwFsUoaGAXvlRQ+wQ4Tu8YuJ49WE97HK2QHFvNI4RtnDzAH7zzTceff/VV1+VSRL1Qx5AedGTl0Tv8PISUR+WH733Y73rT9SGmwEYExODOnXqoGHDhnAlgp+fH+bNm6eQZOqDOra80MtZP9BSrLbRc9wbjWNETbgZgJ9//jmOHj2KsLAw9OrVC71790Z4eDgPUTSBngc2uaHYIf3A0xCjPqwcesyaQOMYUROum0BKSkpw8OBB7NmzB2fOnEGbNm3Qt29f9OnTB02bNuUlFkHYQDNnfUGGmLbRq7eVxjGiJsLsAr5x4wb27duHvXv34tKlS+jcuTP69OmDxx9/HPXr1+ctHqFj9PrCIAgtoldDiMYxoibCGIDVuXjxIvbu3YsjR46goKAAf/nLXygPIMEV8goRhDbQ81IojWNEdQJ5C2CPgIAABAYGwmAwoKqqCsXFxbxFInSO5TxYLXsIiNroMVZM60RGAmlptT2AekgHQ+MYUR1hPIBFRUXYu3cv9uzZg5ycHLRs2RJ9+/ZF37590aJFC97iqQZ6YUkLlad+oSUzbUL1ShBmuBqAJpMJhw8fxu7du3Hs2DGEhITgiSeeQN++fREREcFLLNVCA5u0UHnqGyVixfQ+weClPy2FEgRHA/Crr77CoUOH4O/vj549e+KJJ55At27d4O8v9OEkQqPX4Ga5oPLUN3LHiul9gqF3/QmCN9xiADMzM1G3bl2Eh4fjxo0b2LhxIzZu3Ojw+1OmTFFQOnXi7DgpMlg8h8pT38gdK+bs2Dk9tC+9608QvOHmbnvyySfx6KOP4k9/+hNatGjh8odwDZ11KS1Unq7R8tmiMTFmj5SlDVg8VDEx0txfz2d4m0xm76pe9eeNlvst4T7CbAIhfIeWVKSFytM5eigfOWPF9BpiYGk3R4/WNjz0oD9v9NBvCfcgA1BjUHCztFB5OkavBoxU6PVFbK/dAEBQENCjh/b15w31W8KCkHkACe+hPE/SQuXpGIqR9A2DwWzsrF4NLF8OMAYkJPCWSn7stRsA6N0b+OknMv7khvotYYG23BIE4RUUIykNCxcCv/xifjEnJZm9glqOyXLUbkaOJONPCajfEhZoCZggCK/Q6xKmlOhxOY7aDV+o/AkLZAASBOE1FCPpG3o9l5baDV+o/AmADECCcIneT2sg5EOPHkCCIMRAlwZgdnY25s6di4YNG2LmzJnW66dOncK0adNgqPF2nzBhAh5//HGlxSQEgJZLCDmh9qU8NKGTFypf9aC7XcB79uxBWloa2rRpg3v37tX6vEWLFpg/fz4HyQgRodMKHEMDve9YdgLTcpwy1DS409KA5GQyuKWCyldd6G4XsMlkwsyZM9GhQwfeohAqQM+nNTjDMtCPHWuOYRs7Vvu7V+XCkmooJcX8L70o5cPZhI7wHSpfdaE7A7Bfv35o2rSpw89LS0sxa9YsJCQkYOLEidi0aRN0uEpO/H8oZYJ9aKAn1AhN6OSFyldd6M4AdEZwcDDCw8MxaNAgLFq0CKNGjcI333yDzMxM3qIRnJD7PFi1QgM9oUZoQicvVL7qQnObQHbv3o158+bZ/SwpKQlRUVEAgHXr1uHYsWM2m0DssWrVKpw9exYfffSR1KJKDsVkyQOlTKiNHnavUn/SHrTpRl6ofNWF5gxAd3HXAPzpp5+wadMmJCcnKySZd1DHI5RE6+1N6/rpGZrQyQuVr3rQ3S5gZxw8eBDFxcXo37+/9VpeXh5CQ0M5SuUetFuVUBKt716l/qRd6HxveaHyVQ8UA1gNg8GAFStW4OTJk6isrMTx48eRkZGBZ555hrdoLqGYLEJptLx7lfoTQRBaR3cewDfffBM3btxAZWUlGGOIi4sDAMydOxcPPfQQhg8fjsWLF+PWrVsIDQ1FYmIievXqxVlq10RGmnMu1YzJouBbgvAc6k8EQWgd3cYAag2KWSII6aD+RGgV2txEWCADUENQ8C1BSAf1J3khQ0R5aGJDVIcMQIIgCEJRyBDhgx7SNxHuQ5tACIIgCEWhk2T4QJubiOqQAUgQBEEoChkifKCTOojqkAFIEARBKAoZInygoy2J6lAMIEEQBKEoFAPID9rcRFggA5AgCIJQHDJECIIvZAASBEEQBEHoDIoBJAiCIAiC0BlkABIEQRAEQegMMgAJgiAIgiB0BhmABEEQBEEQOoMMQIIgCIIgCJ1BBiBBEARBEITOIAOQIAiCIAhCZ5ABSBAEQRAEoTPIACQIgiAIgtAZgbwFIOxz7do1LF68GL///jvq1KmDqKgoxMbGwt9fnTZ7dHQ0AgMD4efnZ7329NNPIzExESdOnMCKFSuQl5eHpk2bIjo6Gn379uUorXv897//xfz589GlSxe89dZbNp/t27cP69atw40bNxAWFobXXnsN3bp1AwBUVVVh7dq1yMjIQGlpKTp16oSxY8ciNDSUhxoOcaTfzp07sXDhQgQG2g4f06ZNQ4cOHVSj37Vr15CamoozZ84gICAAPXr0wIgRIxASEoLz589jyZIlyMnJQYMGDfDcc8/hueees/6ts/oVBUf6lZSUYMKECTDUOHctJiYGL7zwAgB16Hf+/HmsXLkS2dnZCAgIQJcuXZCQkIAmTZq4HFO2bt2KzZs3486dO2jbti1GjRqF9u3bc9SmNo70y8vLw7Rp02rV34QJE/D4448DUId+FlJTU7F161asW7cOADRRd6qBEcJRVVXF3nvvPfbFF1+wu3fvssuXL7OkpCS2adMm3qJ5zeDBg9nVq1drXb958yYbNmwY27JlCysrK2OHDx9msbGxLCsri4OU7rNhwwb2xhtvsH/+859szpw5Np9lZ2ezoUOHsn379rHy8nK2fft2NmzYMHbjxg3GGGObNm1iY8aMYbm5uezevXvsq6++Yu+++y6rqqrioYpdnOmXmZnJpkyZ4vBv1aAfY4y98847bP78+ay0tJTdunWLffDBB2zhwoWsrKyMjRkzhq1cuZKVlpays2fPshEjRrCDBw8yxlzXryg40u/q1ats8ODBDv9ODfoZjUY2atQolp6ezoxGI7tz5w6bMmUK+/TTT12OKYcOHWLx8fHsxIkTrKysjK1bt46NHj2alZaWctbqD5zpd/LkSZaUlOTwb9Wgn4Xc3FyWkJBgbY9aqDs1oU53ksbJzs7GhQsXkJiYiJCQELRq1Qovvvgifv75Z96iSc7evXsRFhaGQYMGoU6dOnj44YfRq1cvZGRk8BbNKQaDAZ988gnCwsJqfZaRkYEePXqgd+/eCAoKwtNPP43w8HDs3r3b+vkLL7yA+++/H/Xq1cPw4cNx+fJlZGVlKa2GQ5zp5wo16FdSUoL27dsjLi4OdevWRZMmTRAZGYnTp0/jt99+Q0VFBWJjY1G3bl107NgR/fv3x/bt2wG4rl8RcKafK9SgX3l5OYYMGYKXX34ZBoMBDRs2xGOPPYbLly+7HFN27NiBfv36oWvXrqhTpw5effVV+Pn54ddff+Ws1R84088VatAPMK+ELF682MazroW6UxNkAApIbm4uQkNDERISYr3Wvn175Ofno7S0lKNkvpGWloaxY8dizJgxWLRoEcrKypCTk1PLfd+uXTtkZ2dzktI9Bg0ahHr16tn9LDc316FORqMRV65csfk8ODgYYWFhQunsTD8AuHnzJqZPn44RI0Zg0qRJVuNALfrVq1cPSUlJaNSokfXajRs30KhRI+Tm5qJt27Y24RbV26Sz+hUFZ/pZSE5OxqhRozB+/HisXr0aFRUVANShX0hICJ5++mkEBASAMYa8vDzs3LkTvXv3djmm1NTPz88P999/P3JychTVwRnO9AOA0tJSzJo1CwkJCZg4cSI2bdoExhgAdegHANu3b0dQUBD69OljvaaFulMTZAAKyN27d22MPwDW34uKiniI5DMPPPAAunbtirlz52LKlCnIysrC4sWLHeqqVj0Bx/V39+5dFBcXgzGmap0bNmyI++67D3FxcUhJScFf//pXLFiwACdOnFCtftnZ2fjhhx/w8ssvo6ioyK78xcXFqKqqclq/olJdP4PBgE6dOuGRRx7B/Pnz8c4772Dv3r345ptvADhvv6Jx/fp1xMbGYtKkSYiIiEB0dLTLMcXe5/Xr1xeyfdrTLzg4GOHh4Rg0aBAWLVqEUaNG4ZtvvkFmZiYAdehXWFiI9PR0jB492ua6lupODZABqDKqb6JQEzNnzkT//v0RHByMVq1aITY2Fnv37kVVVZXd76tVT8B72dWic8+ePTF58mRERERYZ/CPPPKI9QXkCFH1+/333zFjxgzExcWhZ8+eLuUUVQ9H1NSvSZMm+Oijj/Doo4+iTp066NChA1566SVr/alJvxYtWiAtLQ1z585FXl4ekpOTHcqvJr0s2NOvffv2mDp1Krp27YqgoCB0794dAwYMcNn/RGLFihXo378/WrZsaXNdS3WnBsgAFJCGDRvWmm1bZjgNGzbkIZLkhIaGgjEGPz+/WrrevXvXZqlKbTRs2BDFxcU214qKitCoUSM0aNDAoc5qrtvQ0FAUFhaqTr9ff/0Vn3zyCRISEjBo0CAA9vvf3bt30aBBA/j7+zutX9Gwp589QkNDUVRUBMaYqvQDzMbBfffdh2HDhmHfvn0ICAhwOqY4ql+16GfP22Xpf4D4+p04cQLZ2dl4+eWXa33mSnbRdVMbZAAKSIcOHXD9+nWbhn7u3Dm0bt0adevW5SiZd5w/fx6rVq2yuZaXlweDwYCePXsiNzfX5rNz584hIiJCSRElJSIiolZMSnZ2Njp06ACDwYDw8HCbz4uLi1FQUIAOHTooLapX/Pzzzzh48KDNtby8PISGhqpKv7Nnz1qXQJ988knr9YiICFy4cAGVlZXWa+fOnbPK76x+RcKRfidPnsSGDRtsvpuXl4cWLVrAz89PFfqdPn0aEydOtKkjy2rCn//8Z6djSk39qqqqkJubqxr9Tp06Zd2QZMHS/wDx9duzZw9u3ryJ8ePHY+TIkfjb3/4GABg5ciTCw8NVX3dqggxAAbn//vvRoUMHLF26FPfu3cPFixexceNGPPPMM7xF84pGjRrhp59+wubNm1FRUYG8vDysXbsWAwYMQN++fXHt2jVs2bIF5eXlOHjwII4ePYoBAwbwFttr+vXrh2PHjmH//v0wGo344YcfUFBQYH0JDxw4EN9//z3Onz+PkpISLF26FBEREaoZxCorK7Fs2TKcP38eFRUV2Lt3L44ePYqBAwcCUId+lZWV+OqrrxAfH18rv91f/vIXBAcHY/Xq1SgrK8Pp06exY8cOa/9zVb8i4Ey/kJAQpKenY//+/aisrMS5c+fw/fffq0q/+++/H2VlZVi9ejXKy8tRVFSE9PR0PPjggy7HlIEDByIzMxMnT55EWVkZ0tLSEBQUhIceeoizVn/gTL+goCCsWLECJ0+eRGVlJY4fP46MjAxr/Ymu3/Dhw/HFF19g1qxZmDVrFv7+978DAGbNmoU+ffqovu7UhB+zbB0ihOLmzZtISUnBqVOnEBwcjIEDB2Lw4MG8xfKa06dPY/Xq1bh06RIaNGiA3r17Izo6GgaDAWfOnMHSpUuRl5eH5s2bIy4uDo888ghvkZ0SFxcHANadk5akyKtXrwYAHDp0CGlpabhx4wZatf1cNHAAAA1dSURBVGqFhIQEPPjgg9a/X7duHX7++WeUlpaiS5cuGDNmDJo1a6awFo5xph9jDOvXr0dGRgaKiorQsmVLxMTEoGfPnta/F12/M2fOYMqUKbWS6QLA3LlzUVZWhpSUFOTk5KBRo0Z46aWXrAYu4Lp+eeNKv9zcXKSnp6OgoABNmjRB//798dxzz1l3PouuH2A/UfKIESPQtGlTl2PKTz/9hA0bNuDOnTuIiIjA6NGj0aZNG47a1MaZftu3b8emTZtw69YthIaG4vnnn0dUVJT1b9Wgn4Vr165hwoQJ1kTQWqg7tUAGIEEQBEEQhM6gJWCCIAiCIAidQQYgQRAEQRCEziADkCAIgiAIQmeQAUgQBEEQBKEzyAAkCIIgCILQGWQAEgRBEARB6AwyAAmCIAiCIHQGGYAEQRAEQRA6I5C3AARB8GP+/PnYtWuXzTU/Pz80btwY7dq1w+DBg2U5l3nnzp1YsGAB5syZg1atWkl+/+pER0fb/B4UFISmTZuiZ8+eeOWVV9CwYUOP7mc0GjF79mycOnUKXbt2xQcffIDff/8dCxYswM2bN5GUlIQnnnhCShUQHR2NF1980XpCi7dYyn3evHnWs2MJgtAnZAAShM5p2LAhPv/8c+vvVVVVuH79Or799lv885//xPTp0/HAAw9wlNB3nnnmGbzyyisAzAZcdnY2lixZgpycHEyfPt2je/322284evQoxowZg4cffhgAsGHDBpSVleHTTz+V5ci7lJQU1K1bV/L7EgShX8gAJAidY/H4Vadp06Z45513MG7cOPzwww+qNwDr1Kljo2NoaCiuXr2KtLQ0FBUVeeQFvHv3LgCgW7du1nvevXsXLVu2ROvWrb2WsaKiwnrmck1q1g9BEISvkAFIEIRd6tSpg7CwMNy6dcvm+rZt2/Djjz/i6tWrqF+/Pnr16oVhw4ahXr16AIAvv/wSFy9eRHx8PFasWIH8/Hw0bdoUr776qs2B9TXZunUrduzYgWvXrsFgMCAiIgLDhg1D27ZtcfHiRbz77rtISkqqdY+33noLbdu2xaRJkzzW0c/Pz2p0WQ6lHzVqFAYOHGj9zvz58/Hf//4XixcvtlkynzBhAv7nf/4Hp0+ftn43OjraKmNOTg7WrFmDs2fPoqqqChEREYiNjUWnTp0AAKdOncK0adPw9ttvIz09Hbdu3cKyZcvsyll9Cfj48eOYMWMGpk6diu3bt+PIkSMICAhA9+7dMXr0aGs93L59GykpKTh58iQMBgMee+wxtG3btta9jx8/jvT0dOTm5iIgIACdO3dGfHw8WrdujYqKCkyePBnBwcGYOnUq/Pz8AADp6en4/vvv8emnn6Jly5YelztBEPyhTSAEQdjFZDLh2rVraN68ufXad999h2XLlqFv3774/PPPMX78eBw9ehSfffaZ9Tv+/v64efMmvv/+e4wfPx6zZs1Cx44dsXDhQpw7d87us3bv3o3U1FT0798fs2fPxtSpUwEAn3zyCYxGI8LDw9GpUyfs3LnT5u9yc3ORl5eHp59+2m29qqqqkJWVhW3btqF///5Wg8kdEhISrHF4H3/8Md59912kpKSgXbt26NixI1JSUtC7d28UFBRgypQpqKysxJQpU/Dxxx+jcePG+Oijj5CXl2dzz++++w5DhgzBrFmz3JIhICAAALB8+XJ06dIFn332GRISErB//35s2bLF+r25c+fi3LlzmDRpEmbMmIEWLVrgu+++s7nX77//jo8//hjNmjXDxx9/jA8//BBGoxFTp05FUVERAgMDMWHCBGRlZSEjIwMAkJeXhw0bNiAuLo6MP4JQMWQAEgRRi8LCQixatAjFxcVWb1hFRQU2btyI3r1745VXXkHLli3Rs2dPJCQk4NSpU8jKygJg9qrdu3cPw4cPR4cOHdC6dWuMGzcOQUFB2LNnj93nPfLII/jyyy/x7LPPIjQ0FOHh4Rg0aBBu3bqFixcvAgAGDBiAM2fO4OrVq9a/27dvH1q0aIE///nPTvXZvHkz4uPjER8fj7i4OPzjH/9Ax44dMWzYMI/KpV69eggODgZgjp0MCQlB48aNERgYiMDAQDRu3BhBQUHYvHkz/Pz88PbbbyMiIgLh4eF4/fXXERwcbGOkAUCXLl3Qq1cvtGjRwiNZunTpgqeffhqhoaHo27cvWrdubTWwCwoKcObMGbz44ovo2bMnWrZsiZdffhnt2rWzucd3332Hpk2bYsKECQgPD0eHDh3w5ptvoqSkxGrwhYeHIzo6GqtXr8adO3ewZMkSdO7cGf/7v//rkbwEQYgFLQEThM4pKipCfHy89XfGGIxGI9q2bYv3338fHTt2BGD2/JSUlKBLly42f9+1a1cAwNmzZ62xgsHBwTbLjUFBQWjZsiWuXLliV4aAgADs3LkTv/zyC27fvo2KigpUVVUBAIqLiwEAjz32GJYvX45du3ZZd/YeOHAATz31lHVp0hFPPfUUXnjhBQBAZWUlrl+/jm3btuH999/Hhx9+KPmO2KysLLRt2xYhISHWa0FBQejUqRPOnj1r811vd1lb6sVCSEiItawuXboEAOjQoYPNdzp16oQjR47YyNmjRw+b2MPGjRujTZs2NnK+8MIL+PXXXzFlyhQUFhbi888/d1nmBEGIDRmABKFzQkJCMHPmTOvv2dnZ+OKLL/DSSy/hoYcesl4vKSkBACxbtgzLly+vdZ/CwkLr/y1esurUrVsX5eXldmVYs2YNtm7diqFDh6J79+6oW7cusrKykJycbP1OUFAQIiMjsWvXLgwePBhZWVm4efMmnnrqKZc61q9fH2FhYdbfW7Vqha5du2LSpElIS0vDW2+95fIenlBSUoILFy7YGNaA2Ytav379WrJ5Q81dwdUNstLSUrv3rm6QWuQ8cOAADh8+bHPdZDLB3/+PBSJ/f38MGDAA8+fPR+/evW3CAgiCUCdkABKEzvH397cxjsLCwnDw4EGkpqaie/fuVqPBYkzExcWhZ8+ete5TPZbu3r17tT4vLS11uJt1//79eOyxx/Diiy9ar+Xm5tb6Xv/+/bF582acPXsWBw4cQI8ePbxOuxIYGIjWrVvjwoULAODQo2U0Gj2+d0hICJo1a4Zx48bV+qy6YSUXderUAYBaBrdlB7OF+vXro3v37rVyJQKw8QqWlJTgP//5D3r27IkDBw5gwIABtTzBBEGoC4oBJAiiFiNGjEB5eTlSU1Ot11q2bIn69evj+vXrCAsLs/6EhoaioqLCJpVKeXk5zp8/b/N7Xl4e2rRpY/d5paWltVKxWHbbMsZsZOjSpQv27t2LAwcOoF+/fl7rWFVVhStXrqBp06YA/jBwLZ5Oy7MtBqInPPDAA8jPz0ezZs1syooxpkhKF0ty7ep1AMBmx7JFzitXrtjIGBYWhsrKSjRp0sT6vWXLlqFOnTp455130K9fPyxYsMDqZSQIQp2QAUgQRC2aNWuGwYMHY/fu3Th+/DgAc5zeCy+8gJ9++gnbtm1DQUEBzp8/jwULFuAf//gHbt++bf374OBgLF26FL///jsuX76MRYsWwWQy4cknn7T7vI4dO+KXX35BVlYWLl26hK+++sq6zHj27FlrbBtg3gyyY8cOALBZonZGeXk5CgsLUVhYiFu3buHcuXOYP38+rl27hueffx6A2YPZqlUrHDhwAHfv3kVZWRnS09MdLls7Y9CgQSgpKcGXX36JnJwcXLt2Ddu3b8f777+PzMxMj+/nKa1bt0b79u3xzTff4NixY8jLy8O3335bawfySy+9hAsXLuDrr7/GxYsXkZ+fjw0bNuCdd97BsWPHAAC//vordu/ejXHjxsFgMCA+Ph4VFRU2kwOCINQHLQETBGGXQYMGYdeuXUhJScHs2bNRp04dvPzyywgODsaPP/6I5cuXo27duujUqROmT59u4zEKCQnBiy++iJSUFBQUFKBZs2Z488037eahA4BRo0bhq6++wvTp0xESEoKBAwfipZdeQlFREbZs2QKDwYC//vWvAMw7hv39/REVFWVNieKKbdu2Ydu2bQDMS71NmjTB/fffj+nTp9tspnj99dexZMkSjB8/Hg0aNMCAAQPQp08f645YdwkLC8O0adOwZs0aTJ06FVVVVbjvvvswfPhwDBgwwKN7ecvbb7+NxYsXY9asWQgKCsKjjz6KoUOH4ssvv0RlZSUAoHPnzpg8eTLS09MxefJk+Pn5ITw8HJMmTULPnj1RXFyMlJQUDBgwAJ07dwZgNpQTExMxe/ZsPPLII24b4QRBiIUfq76+QhAE4SPz58/H6dOnMX/+fFnuf+jQIcydOxfJycm0GYEgCMJLyANIEIQquH37NnJzc7F48WI8++yzZPwRBEH4ABmABEGoghkzZuD69et48sknERsby1scgiAIVUNLwARBEARBEDqDdgETBEEQBEHoDDIACYIgCIIgdAYZgARBEARBEDqDDECCIAiCIAidQQYgQRAEQRCEziADkCAIgiAIQmeQAUgQBEEQBKEzyAAkCIIgCILQGWQAEgRBEARB6AwyAAmCIAiCIHQGGYAEQRAEQRA6gwxAgiAIgiAInfH/AOB2BwJ8If0xAAAAAElFTkSuQmCC;" vertex="1" parent="1">
          <mxGeometry x="165" y="250" width="520" height="390" as="geometry" />
        </mxCell>
        <mxCell id="GAC_vmrgCj-5szb93fRh-12" value="" style="endArrow=classic;html=1;rounded=0;fillColor=#d80073;strokeColor=#A50040;strokeWidth=3;edgeStyle=orthogonalEdgeStyle;curved=1;" edge="1" parent="1">
          <mxGeometry width="50" height="50" relative="1" as="geometry">
            <mxPoint x="430" y="360" as="sourcePoint" />
            <mxPoint x="320" y="450" as="targetPoint" />
            <Array as="points">
              <mxPoint x="390" y="350" />
              <mxPoint x="320" y="350" />
              <mxPoint x="320" y="430" />
            </Array>
          </mxGeometry>
        </mxCell>
        <mxCell id="GAC_vmrgCj-5szb93fRh-11" value="" style="endArrow=classic;html=1;rounded=0;fillColor=#d80073;strokeColor=#A50040;strokeWidth=3;edgeStyle=orthogonalEdgeStyle;curved=1;" edge="1" parent="1">
          <mxGeometry width="50" height="50" relative="1" as="geometry">
            <mxPoint x="270" y="380" as="sourcePoint" />
            <mxPoint x="280" y="460" as="targetPoint" />
            <Array as="points">
              <mxPoint x="280" y="410" />
              <mxPoint x="280" y="410" />
            </Array>
          </mxGeometry>
        </mxCell>
      </root>
    </mxGraphModel>
  </diagram>
</mxfile>
